<?xml version="1.0" encoding="UTF-8" standalone="no"?>
<!DOCTYPE svg PUBLIC "-//W3C//DTD SVG 1.1//EN" "http://www.w3.org/Graphics/SVG/1.1/DTD/svg11.dtd">
<svg xmlns="http://www.w3.org/2000/svg" version="1.1" viewBox="0.00 0.00 549.00 290.00">
<g stroke-width="2.00" fill="none" stroke-linecap="butt">
<path stroke="#d2d8e3" vector-effect="non-scaling-stroke" d="
  M 531.00 33.26
  C 531.00 28.70 527.30 25.00 522.74 25.00
  L 27.26 25.00
  C 22.70 25.00 19.00 28.70 19.00 33.26
  L 19.00 260.74
  C 19.00 265.30 22.70 269.00 27.26 269.00
  L 522.74 269.00
  C 527.30 269.00 531.00 265.30 531.00 260.74
  L 531.00 33.26"
/>
<path stroke="#939dad" vector-effect="non-scaling-stroke" d="
  M 191.03 51.81
  C 191.03 50.84 190.25 50.06 189.28 50.06
  C 188.31 50.06 187.53 50.84 187.53 51.81
  C 187.53 52.78 188.31 53.56 189.28 53.56
  C 190.25 53.56 191.03 52.78 191.03 51.81"
/>
<path stroke="#939dad" vector-effect="non-scaling-stroke" d="
  M 180.75 56.38
  C 170.05 53.95 169.27 72.05 183.77 68.36
  C 184.09 68.27 184.25 68.07 184.25 67.74
  L 184.25 50.86
  C 184.25 50.52 183.95 50.27 183.62 50.32
  L 181.92 50.57
  C 181.47 50.64 181.25 50.89 181.25 51.34
  L 181.25 55.98
  C 181.25 56.33 181.08 56.46 180.75 56.38"
/>
<path stroke="#939dad" vector-effect="non-scaling-stroke" d="
  M 502.55 55.42
  L 497.41 50.30
  C 497.17 50.05 496.75 50.10 496.57 50.40
  L 496.29 50.87
  C 496.18 51.06 496.21 51.30 496.36 51.45
  L 501.18 56.32
  C 501.56 56.70 501.56 57.31 501.18 57.69
  L 496.44 62.45
  C 496.20 62.69 496.20 63.08 496.44 63.32
  L 496.69 63.56
  C 496.93 63.80 497.32 63.80 497.56 63.56
  L 502.56 58.56
  C 502.85 58.27 503.15 58.27 503.44 58.56
  L 508.44 63.56
  C 508.68 63.80 509.07 63.80 509.31 63.56
  L 509.56 63.32
  C 509.80 63.08 509.80 62.69 509.56 62.45
  L 504.50 57.37
  C 504.25 57.12 504.25 56.88 504.50 56.63
  L 509.53 51.59
  C 509.72 51.40 509.76 51.11 509.65 50.87
  C 509.46 50.48 509.21 50.27 508.92 50.25
  C 508.67 50.24 508.38 50.42 508.05 50.79
  C 506.58 52.46 504.99 54.02 503.29 55.45
  C 503.04 55.67 502.79 55.66 502.55 55.42"
/>
<path stroke="#939dad" vector-effect="non-scaling-stroke" d="
  M 50.15 54.99
  C 51.00 55.18 51.55 55.29 51.80 55.33
  C 52.47 55.44 53.11 55.03 53.29 54.38
  C 53.48 53.74 53.15 53.05 52.53 52.79
  C 40.96 47.95 36.08 64.75 44.76 68.24
  C 47.35 69.29 50.12 69.21 53.06 68.02
  C 53.46 67.86 53.58 67.58 53.42 67.18
  L 52.89 65.81
  C 52.78 65.52 52.45 65.39 52.17 65.52
  C 41.65 70.45 40.37 52.80 50.15 54.99"
/>
<path stroke="#939dad" vector-effect="non-scaling-stroke" d="
  M 97.02 66.55
  C 96.16 66.71 95.34 66.08 95.29 65.20
  L 94.92 59.19
  C 94.89 58.73 95.11 58.50 95.57 58.50
  L 98.56 58.50
  C 99.21 58.50 99.74 58.01 99.80 57.36
  C 99.85 56.72 99.41 56.14 98.77 56.03
  C 97.94 55.89 96.87 55.90 95.55 56.07
  C 95.23 56.11 94.95 55.84 94.99 55.51
  L 95.30 52.94
  C 95.34 52.57 95.02 52.25 94.66 52.31
  L 92.85 52.58
  C 92.44 52.64 92.24 52.88 92.24 53.29
  C 92.27 57.74 89.78 72.29 99.39 68.52
  C 99.96 68.29 100.27 67.67 100.10 67.08
  C 99.93 66.48 99.34 66.12 98.73 66.23
  L 97.02 66.55"
/>
<path stroke="#939dad" vector-effect="non-scaling-stroke" d="
  M 232.36 58.50
  L 235.50 58.50
  C 236.00 58.50 236.25 58.25 236.25 57.75
  L 236.25 56.75
  C 236.25 56.25 236.00 56.00 235.50 56.00
  L 232.31 56.00
  C 231.94 56.00 231.66 55.67 231.71 55.30
  L 232.04 53.09
  C 232.10 52.71 231.79 52.38 231.40 52.41
  L 229.56 52.55
  C 229.16 52.58 228.96 52.79 228.96 53.20
  L 229.08 66.17
  C 229.09 66.59 229.26 66.98 229.56 67.26
  C 231.39 68.95 233.52 69.39 235.93 68.58
  C 236.31 68.45 236.50 68.19 236.50 67.79
  L 236.50 66.69
  C 236.50 66.31 236.12 66.04 235.76 66.18
  C 234.66 66.59 233.60 66.55 232.58 66.04
  C 232.27 65.89 232.07 65.58 232.05 65.24
  L 231.68 59.22
  C 231.66 58.83 231.97 58.50 232.36 58.50"
/>
<path stroke="#939dad" vector-effect="non-scaling-stroke" d="
  M 62.67 58.62
  C 63.01 58.64 63.32 58.42 63.42 58.09
  C 63.80 56.86 63.50 56.19 62.51 56.10
  C 60.49 55.91 58.48 56.14 56.48 56.79
  C 56.22 56.87 56.04 57.12 56.04 57.39
  L 56.08 68.42
  C 56.08 68.74 56.34 69.00 56.67 69.00
  L 58.50 69.00
  C 58.83 69.00 59.00 68.83 59.00 68.50
  L 59.00 59.09
  C 59.00 58.65 59.22 58.44 59.66 58.46
  L 62.67 58.62"
/>
<path stroke="#939dad" vector-effect="non-scaling-stroke" d="
  M 68.74 63.25
  L 75.76 63.25
  C 76.09 63.25 76.29 63.08 76.35 62.75
  C 77.58 55.65 68.35 53.41 65.71 59.79
  C 63.01 66.29 69.09 70.62 74.99 68.41
  C 75.34 68.28 75.52 68.02 75.51 67.65
  L 75.48 66.45
  C 75.47 65.96 75.23 65.80 74.76 65.97
  C 71.83 67.08 69.68 66.43 68.29 64.03
  C 67.99 63.51 68.14 63.25 68.74 63.25"
/>
<path stroke="#939dad" vector-effect="non-scaling-stroke" d="
  M 85.53 59.18
  C 86.47 59.74 85.96 61.19 84.88 61.03
  C 82.23 60.65 78.60 61.85 78.75 65.10
  C 78.96 69.98 85.32 69.12 88.24 68.53
  C 88.56 68.46 88.72 68.27 88.73 67.94
  C 88.86 61.50 90.55 54.23 80.48 56.45
  C 80.15 56.52 79.98 56.73 79.99 57.08
  L 80.03 58.40
  C 80.03 58.73 80.37 58.96 80.69 58.85
  C 82.45 58.20 84.06 58.31 85.53 59.18"
/>
<path stroke="#939dad" vector-effect="non-scaling-stroke" d="
  M 104.90 64.94
  C 104.24 64.35 104.65 63.25 105.54 63.25
  L 112.00 63.25
  C 112.29 63.25 112.54 63.03 112.59 62.74
  C 113.73 55.50 104.52 53.46 101.94 59.82
  C 99.27 66.37 105.28 70.48 111.20 68.48
  C 111.63 68.34 111.82 68.05 111.78 67.60
  L 111.65 66.32
  C 111.62 66.03 111.33 65.84 111.05 65.95
  C 108.72 66.85 106.67 66.51 104.90 64.94"
/>
<path stroke="#939dad" vector-effect="non-scaling-stroke" d="
  M 124.71 58.65
  C 130.34 56.89 129.08 65.58 128.97 68.41
  C 128.95 68.80 129.14 69.00 129.54 69.00
  L 131.21 69.00
  C 131.60 69.00 131.80 68.80 131.79 68.41
  C 131.64 61.48 133.12 53.00 121.85 56.64
  C 121.45 56.77 121.25 57.04 121.25 57.46
  L 121.25 68.25
  C 121.25 68.75 121.50 69.00 122.00 69.00
  L 123.75 69.00
  C 124.08 69.00 124.25 68.83 124.25 68.50
  L 124.25 59.27
  C 124.25 58.95 124.40 58.74 124.71 58.65"
/>
<path stroke="#939dad" vector-effect="non-scaling-stroke" d="
  M 138.01 63.80
  C 137.86 63.47 138.11 63.10 138.47 63.11
  L 145.42 63.30
  C 145.82 63.31 146.04 63.12 146.09 62.73
  C 146.62 58.24 143.38 55.01 139.26 56.25
  C 131.45 58.59 134.46 72.09 144.79 68.39
  C 145.18 68.26 145.34 67.99 145.28 67.58
  L 145.10 66.35
  C 145.04 65.98 144.66 65.77 144.33 65.91
  C 141.34 67.17 139.24 66.47 138.01 63.80"
/>
<path stroke="#939dad" vector-effect="non-scaling-stroke" d="
  M 152.75 64.49
  L 150.82 56.60
  C 150.72 56.20 150.47 56.00 150.06 56.00
  L 148.02 56.00
  C 147.66 56.00 147.53 56.17 147.64 56.52
  L 151.26 68.01
  C 151.76 69.61 154.03 69.59 154.51 67.99
  L 156.31 61.98
  C 156.39 61.71 156.77 61.71 156.85 61.98
  L 158.72 68.05
  C 159.21 69.63 161.44 69.64 161.94 68.06
  L 165.51 56.73
  C 165.62 56.37 165.36 56.00 164.98 56.00
  L 163.20 56.00
  C 162.83 56.00 162.59 56.18 162.50 56.55
  L 160.47 64.52
  C 160.39 64.83 159.96 64.83 159.88 64.53
  L 157.96 57.02
  C 157.62 55.68 155.72 55.68 155.37 57.02
  L 153.44 64.49
  C 153.35 64.85 152.84 64.85 152.75 64.49"
/>
<path stroke="#939dad" vector-effect="non-scaling-stroke" d="
  M 190.7825 56.3076
  C 190.78 56.16 190.67 56.05 190.5239 56.0463
  L 188.1639 56.0339
  C 188.02 56.03 187.90 56.15 187.9026 56.2925
  L 187.8375 68.7324
  C 187.84 68.88 187.95 68.99 188.0961 68.9937
  L 190.4561 69.0061
  C 190.60 69.01 190.72 68.89 190.7174 68.7475
  L 190.7825 56.3076"
/>
<path stroke="#939dad" vector-effect="non-scaling-stroke" d="
  M 197.25 59.06
  C 197.25 58.72 197.54 58.45 197.87 58.47
  L 201.13 58.65
  C 201.46 58.67 201.75 58.40 201.75 58.06
  L 201.75 56.41
  C 201.75 56.06 201.44 55.79 201.09 55.83
  L 194.77 56.56
  C 194.47 56.59 194.25 56.85 194.25 57.15
  L 194.25 68.41
  C 194.25 68.74 194.51 69.00 194.84 69.00
  L 196.66 69.00
  C 196.99 69.00 197.25 68.74 197.25 68.41
  L 197.25 59.06"
/>
<path stroke="#939dad" vector-effect="non-scaling-stroke" d="
  M 207.00 63.25
  L 214.00 63.25
  C 214.33 63.25 214.52 63.09 214.57 62.77
  C 215.28 58.47 211.58 54.67 207.56 56.23
  C 199.89 59.21 203.04 70.77 212.55 68.85
  C 213.76 68.60 214.12 67.80 213.61 66.43
  C 213.48 66.08 213.09 65.90 212.74 66.03
  C 209.95 67.05 207.88 66.38 206.55 64.02
  C 206.26 63.51 206.41 63.25 207.00 63.25"
/>
<path stroke="#939dad" vector-effect="non-scaling-stroke" d="
  M 226.06 66.19
  C 216.93 67.89 219.41 56.26 225.52 58.96
  C 225.91 59.13 226.14 59.01 226.23 58.60
  L 226.54 57.13
  C 226.61 56.79 226.48 56.56 226.15 56.45
  C 215.33 52.90 213.00 71.27 226.20 68.64
  C 226.57 68.57 226.75 68.35 226.75 67.98
  L 226.75 66.76
  C 226.75 66.40 226.42 66.12 226.06 66.19"
/>
<path stroke="#939dad" vector-effect="non-scaling-stroke" d="
  M 244.1942 69.0399
  C 247.52 69.02 250.20 66.08 250.1799 62.4685
  C 250.16 58.86 247.45 55.94 244.1258 55.9601
  C 240.80 55.98 238.12 58.92 238.1401 62.5315
  C 238.16 66.14 240.87 69.06 244.1942 69.0399"
/>
<path stroke="#939dad" vector-effect="non-scaling-stroke" d="
  M 256.95 58.47
  L 260.16 58.65
  C 260.48 58.67 260.75 58.41 260.75 58.09
  L 260.75 56.76
  C 260.75 56.37 260.56 56.16 260.18 56.12
  C 258.00 55.88 255.86 56.10 253.77 56.77
  C 253.42 56.88 253.25 57.12 253.25 57.49
  L 253.25 68.50
  C 253.25 68.83 253.42 69.00 253.75 69.00
  L 255.75 69.00
  C 256.08 69.00 256.25 68.83 256.25 68.50
  L 256.25 59.13
  C 256.25 58.75 256.57 58.45 256.95 58.47"
/>
<path stroke="#939dad" vector-effect="non-scaling-stroke" d="
  M 268.24 64.53
  C 268.15 64.86 267.69 64.87 267.58 64.55
  L 264.86 56.48
  C 264.75 56.16 264.53 56.00 264.19 56.00
  L 262.45 56.00
  C 262.00 56.00 261.69 56.45 261.85 56.87
  L 266.19 67.93
  C 266.33 68.28 266.32 68.64 266.15 68.99
  C 265.46 70.42 264.29 70.84 262.63 70.25
  C 262.14 70.08 261.87 70.25 261.83 70.77
  L 261.72 72.14
  C 261.70 72.46 261.84 72.66 262.15 72.73
  C 269.19 74.54 271.69 62.83 273.27 56.63
  C 273.38 56.21 273.22 56.00 272.79 56.00
  L 271.26 56.00
  C 270.85 56.00 270.58 56.20 270.47 56.60
  L 268.24 64.53"
/>
<path stroke="#939dad" vector-effect="non-scaling-stroke" d="
  M 61.78 115.16
  C 62.40 115.45 62.96 114.66 62.49 114.16
  L 61.53 113.13
  C 61.34 112.93 61.25 112.70 61.25 112.43
  L 61.25 102.50
  C 61.25 102.17 61.08 102.00 60.75 102.00
  L 60.27 102.00
  C 59.94 102.00 59.77 102.17 59.77 102.50
  C 59.75 105.58 58.53 113.68 61.78 115.16"
/>
<path stroke="#939dad" vector-effect="non-scaling-stroke" d="
  M 49.00 102.90
  C 49.17 103.64 49.51 104.00 50.00 103.98
  C 50.49 103.97 50.85 103.68 51.07 103.13
  C 51.24 102.71 50.93 102.25 50.48 102.25
  L 49.52 102.25
  C 49.18 102.25 48.92 102.57 49.00 102.90"
/>
<path stroke="#939dad" vector-effect="non-scaling-stroke" d="
  M 42.75 105.09
  L 42.75 114.37
  C 42.75 114.79 42.96 115.00 43.37 115.00
  L 43.75 115.00
  C 44.08 115.00 44.25 114.83 44.25 114.50
  L 44.25 105.13
  C 44.25 104.71 44.46 104.50 44.88 104.50
  L 47.00 104.50
  C 47.41 104.50 47.74 104.17 47.74 103.77
  C 47.75 103.36 47.43 103.02 47.02 103.01
  C 44.45 102.92 41.89 102.97 39.32 103.17
  C 39.05 103.19 38.83 103.42 38.83 103.69
  C 38.82 103.96 39.02 104.20 39.29 104.23
  L 42.33 104.62
  C 42.61 104.65 42.75 104.81 42.75 105.09"
/>
<path stroke="#939dad" vector-effect="non-scaling-stroke" d="
  M 54.81 105.47
  L 54.63 103.86
  C 54.59 103.49 54.27 103.22 53.90 103.24
  C 53.52 103.26 53.23 103.57 53.23 103.94
  C 53.21 106.87 53.31 109.78 53.53 112.67
  C 53.70 114.84 56.40 115.95 57.74 114.58
  C 58.15 114.16 57.85 113.46 57.27 113.47
  L 55.55 113.51
  C 55.12 113.52 54.76 113.17 54.76 112.74
  L 54.74 107.93
  C 54.74 107.57 55.02 107.29 55.38 107.28
  L 57.71 107.22
  C 57.98 107.21 58.20 107.00 58.21 106.73
  C 58.22 106.46 58.03 106.23 57.76 106.20
  L 55.25 105.91
  C 54.98 105.88 54.84 105.74 54.81 105.47"
/>
<path stroke="#939dad" vector-effect="non-scaling-stroke" d="
  M 50.8556 106.4170
  C 50.86 106.21 50.69 106.04 50.4789 106.0337
  L 49.6589 106.0266
  C 49.45 106.02 49.28 106.19 49.2756 106.4033
  L 49.2044 114.5630
  C 49.20 114.77 49.37 114.94 49.5811 114.9463
  L 50.4011 114.9534
  C 50.61 114.96 50.78 114.79 50.7844 114.5767
  L 50.8556 106.4170"
/>
<path stroke="#939dad" vector-effect="non-scaling-stroke" d="
  M 66.07 112.94
  C 65.25 112.50 65.57 111.25 66.50 111.25
  L 70.26 111.25
  C 70.67 111.25 70.91 111.05 70.96 110.64
  C 71.25 108.52 70.25 106.41 68.02 106.03
  C 62.48 105.08 61.87 117.61 70.28 114.54
  C 70.56 114.44 70.71 114.14 70.63 113.85
  C 70.55 113.57 70.26 113.39 69.97 113.45
  C 68.54 113.74 67.24 113.57 66.07 112.94"
/>
<path stroke="#e9eef5" vector-effect="non-scaling-stroke" d="
  M 510.99 133.25
  C 510.99 128.69 507.30 125.00 502.74 125.00
  L 47.26 125.00
  C 42.70 125.00 39.01 128.69 39.01 133.25
  L 39.01 168.75
  C 39.01 173.31 42.70 177.00 47.26 177.00
  L 502.74 177.00
  C 507.30 177.00 510.99 173.31 510.99 168.75
  L 510.99 133.25"
/>
<path stroke="#bf74ef" vector-effect="non-scaling-stroke" d="
  M 135.99 209.10
  C 135.99 204.63 132.36 201.00 127.89 201.00
  L 47.11 201.00
  C 42.64 201.00 39.01 204.63 39.01 209.10
  L 39.01 240.90
  C 39.01 245.37 42.64 249.00 47.11 249.00
  L 127.89 249.00
  C 132.36 249.00 135.99 245.37 135.99 240.90
  L 135.99 209.10"
/>
<path stroke="#939dad" vector-effect="non-scaling-stroke" d="
  M 181.40 65.22
  L 181.18 59.83
  C 181.15 59.17 180.60 58.66 179.94 58.68
  L 178.83 58.73
  C 177.18 58.80 175.89 60.31 175.97 62.11
  L 176.02 63.37
  C 176.09 65.16 177.49 66.57 179.15 66.50
  L 180.25 66.46
  C 180.91 66.43 181.42 65.88 181.40 65.22"
/>
<path stroke="#939dad" vector-effect="non-scaling-stroke" d="
  M 68.53 61.02
  L 73.33 60.96
  C 73.42 60.96 73.49 60.88 73.48 60.79
  L 73.48 60.70
  C 73.47 59.51 72.36 58.55 71.01 58.57
  L 70.77 58.57
  C 69.43 58.59 68.35 59.58 68.36 60.78
  L 68.36 60.87
  C 68.37 60.95 68.44 61.02 68.53 61.02"
/>
<path stroke="#939dad" vector-effect="non-scaling-stroke" d="
  M 86.01 65.94
  L 86.01 63.96
  C 86.01 63.56 85.69 63.23 85.28 63.23
  L 83.74 63.23
  C 82.64 63.23 81.75 63.87 81.75 64.67
  L 81.75 65.23
  C 81.75 66.02 82.64 66.67 83.74 66.67
  L 85.28 66.67
  C 85.68 66.67 86.01 66.35 86.01 65.94"
/>
<path stroke="#939dad" vector-effect="non-scaling-stroke" d="
  M 104.74 61.06
  L 109.58 60.94
  C 109.68 60.94 109.77 60.85 109.76 60.75
  L 109.76 60.65
  C 109.73 59.44 108.62 58.48 107.27 58.52
  L 106.93 58.52
  C 105.58 58.56 104.51 59.56 104.54 60.77
  L 104.55 60.87
  C 104.55 60.98 104.64 61.06 104.74 61.06"
/>
<path stroke="#939dad" vector-effect="non-scaling-stroke" d="
  M 138.27 61.04
  L 143.11 60.92
  C 143.19 60.91 143.25 60.85 143.25 60.77
  L 143.24 60.69
  C 143.21 59.49 142.10 58.54 140.75 58.58
  L 140.51 58.58
  C 139.16 58.62 138.10 59.62 138.13 60.83
  L 138.13 60.91
  C 138.13 60.98 138.19 61.04 138.27 61.04"
/>
<path stroke="#939dad" vector-effect="non-scaling-stroke" d="
  M 206.74 60.99
  L 211.54 60.99
  C 211.65 60.99 211.73 60.90 211.73 60.80
  L 211.73 60.72
  C 211.73 59.51 210.64 58.53 209.29 58.53
  L 208.99 58.53
  C 207.64 58.53 206.55 59.52 206.55 60.72
  L 206.55 60.80
  C 206.55 60.91 206.64 60.99 206.74 60.99"
/>
<path stroke="#939dad" vector-effect="non-scaling-stroke" d="
  M 244.1461 66.4800
  C 245.81 66.49 247.16 64.71 247.1700 62.5205
  C 247.18 60.33 245.84 58.55 244.1739 58.5400
  C 242.51 58.53 241.16 60.31 241.1500 62.4995
  C 241.14 64.69 242.48 66.47 244.1461 66.4800"
/>
<path stroke="#939dad" vector-effect="non-scaling-stroke" d="
  M 66.01 110.00
  L 69.05 109.94
  C 69.28 109.93 69.46 109.74 69.46 109.51
  L 69.45 109.38
  C 69.43 108.32 68.57 107.49 67.53 107.51
  L 67.41 107.51
  C 66.37 107.54 65.55 108.41 65.58 109.46
  L 65.58 109.59
  C 65.58 109.83 65.78 110.01 66.01 110.00"
/>
<path stroke="#c2ccd9" vector-effect="non-scaling-stroke" d="
  M 114.42 148.24
  C 107.06 146.45 107.60 159.85 116.21 156.56
  C 116.58 156.42 116.77 156.15 116.76 155.75
  L 116.71 144.71
  C 116.70 144.25 116.47 144.01 116.01 144.00
  C 115.90 144.00 115.79 144.00 115.67 144.00
  C 115.47 144.01 115.31 144.16 115.30 144.36
  L 115.15 147.70
  C 115.13 148.17 114.89 148.35 114.42 148.24"
/>
<path stroke="#c2ccd9" vector-effect="non-scaling-stroke" d="
  M 121.02 145.01
  C 121.02 144.46 120.57 144.01 120.02 144.01
  C 119.47 144.01 119.02 144.46 119.02 145.01
  C 119.02 145.56 119.47 146.01 120.02 146.01
  C 120.57 146.01 121.02 145.56 121.02 145.01"
/>
<path stroke="#c2ccd9" vector-effect="non-scaling-stroke" d="
  M 56.35 146.36
  C 57.49 146.29 58.63 146.34 59.76 146.50
  C 60.55 146.61 61.03 146.37 61.20 145.77
  C 61.31 145.39 61.03 145.01 60.63 145.01
  L 54.98 145.00
  C 54.64 144.99 54.47 145.16 54.47 145.51
  L 54.47 156.46
  C 54.47 156.77 54.72 157.02 55.03 157.02
  L 61.07 156.97
  C 61.47 156.97 61.83 156.64 61.86 156.24
  C 61.89 155.83 61.59 155.51 61.19 155.51
  L 56.53 155.51
  C 56.18 155.51 56.00 155.33 56.00 154.97
  L 56.00 151.88
  C 56.00 151.46 56.21 151.25 56.62 151.25
  L 60.17 151.25
  C 60.49 151.25 60.75 151.00 60.76 150.68
  C 60.78 150.36 60.54 150.09 60.22 150.06
  C 58.99 149.95 57.75 149.94 56.49 150.04
  C 56.10 150.07 55.78 149.77 55.77 149.38
  L 55.74 147.01
  C 55.73 146.60 55.94 146.39 56.35 146.36"
/>
<path stroke="#c2ccd9" vector-effect="non-scaling-stroke" d="
  M 74.12 147.59
  L 73.74 145.62
  C 73.68 145.31 73.40 145.10 73.09 145.12
  C 72.78 145.15 72.54 145.41 72.53 145.72
  C 72.48 148.56 70.78 159.18 76.93 156.60
  C 77.21 156.49 77.31 156.27 77.24 155.95
  C 77.18 155.70 76.96 155.52 76.70 155.51
  L 74.68 155.48
  C 74.31 155.47 74.01 155.18 74.01 154.81
  L 73.99 149.98
  C 73.99 149.46 74.25 149.21 74.77 149.24
  L 76.45 149.32
  C 76.70 149.33 76.86 149.22 76.93 148.97
  L 77.00 148.71
  C 77.12 148.24 76.94 148.00 76.45 148.00
  L 74.62 148.00
  C 74.34 148.00 74.17 147.86 74.12 147.59"
/>
<path stroke="#c2ccd9" vector-effect="non-scaling-stroke" d="
  M 147.13 147.07
  L 147.30 146.22
  C 147.39 145.74 147.20 145.50 146.71 145.50
  L 146.04 145.50
  C 145.81 145.50 145.62 145.69 145.64 145.92
  C 145.80 148.82 144.03 159.27 150.25 156.58
  C 150.81 156.34 150.63 155.50 150.02 155.50
  L 147.93 155.50
  C 147.56 155.50 147.36 155.31 147.35 154.94
  L 147.21 149.96
  C 147.20 149.62 147.46 149.35 147.80 149.34
  L 150.16 149.29
  C 150.45 149.28 150.69 149.05 150.70 148.76
  C 150.71 148.47 150.50 148.22 150.21 148.19
  L 147.76 147.93
  C 147.34 147.88 147.04 147.48 147.13 147.07"
/>
<path stroke="#c2ccd9" vector-effect="non-scaling-stroke" d="
  M 70.24 156.54
  C 70.33 151.86 71.21 146.53 63.99 148.40
  C 63.66 148.48 63.50 148.69 63.50 149.03
  L 63.50 156.28
  C 63.50 156.68 63.70 156.91 64.09 156.96
  L 64.46 157.01
  C 64.82 157.06 65.00 156.90 65.00 156.54
  L 65.00 150.08
  C 65.00 149.63 65.22 149.43 65.67 149.46
  L 67.76 149.62
  C 68.33 149.67 68.63 149.98 68.64 150.55
  L 68.80 156.36
  C 68.80 156.53 68.90 156.69 69.05 156.77
  L 69.47 156.99
  C 69.82 157.18 70.24 156.93 70.24 156.54"
/>
<path stroke="#c2ccd9" vector-effect="non-scaling-stroke" d="
  M 80.50 154.80
  C 79.81 154.33 80.15 153.25 80.98 153.25
  L 84.96 153.25
  C 85.24 153.25 85.40 153.11 85.44 152.83
  C 86.73 144.36 74.04 148.48 79.57 156.06
  C 79.76 156.32 80.01 156.49 80.32 156.57
  C 81.75 156.94 83.18 156.97 84.61 156.64
  C 84.90 156.58 85.06 156.26 84.94 155.99
  L 84.79 155.66
  C 84.71 155.47 84.51 155.37 84.31 155.42
  C 82.88 155.76 81.61 155.55 80.50 154.80"
/>
<path stroke="#c2ccd9" vector-effect="non-scaling-stroke" d="
  M 91.92 148.04
  L 88.37 148.22
  C 87.96 148.24 87.75 148.46 87.75 148.88
  L 87.75 156.48
  C 87.75 157.10 88.51 157.39 88.93 156.93
  C 89.34 156.48 89.51 155.82 89.43 154.97
  C 89.27 153.35 89.21 151.70 89.25 150.03
  C 89.26 149.68 89.44 149.50 89.79 149.50
  L 92.08 149.50
  C 92.49 149.50 92.63 149.30 92.51 148.91
  L 92.32 148.32
  C 92.27 148.14 92.10 148.03 91.92 148.04"
/>
<path stroke="#c2ccd9" vector-effect="non-scaling-stroke" d="
  M 102.90 148.90
  C 101.49 147.92 99.97 147.71 98.35 148.27
  C 97.75 148.48 97.67 148.80 98.12 149.25
  L 98.35 149.47
  C 98.54 149.66 98.77 149.72 99.02 149.63
  C 100.62 149.08 101.65 149.52 102.11 150.93
  C 102.29 151.49 101.84 152.05 101.26 152.00
  C 100.15 151.90 99.06 152.11 97.99 152.64
  C 96.28 153.48 96.45 155.98 98.26 156.57
  C 99.92 157.11 101.59 157.15 103.26 156.70
  C 103.60 156.61 103.83 156.29 103.82 155.93
  L 103.58 150.13
  C 103.55 149.64 103.30 149.18 102.90 148.90"
/>
<path stroke="#c2ccd9" vector-effect="non-scaling-stroke" d="
  M 120.9127 148.5941
  C 120.91 148.29 120.66 148.05 120.3589 148.0479
  L 119.7389 148.0523
  C 119.44 148.05 119.19 148.30 119.1927 148.6061
  L 119.2473 156.4259
  C 119.25 156.73 119.50 156.97 119.8011 156.9721
  L 120.4211 156.9677
  C 120.72 156.97 120.97 156.72 120.9673 156.4139
  L 120.9127 148.5941"
/>
<path stroke="#c2ccd9" vector-effect="non-scaling-stroke" d="
  M 127.67 148.03
  L 123.91 148.16
  C 123.47 148.17 123.25 148.40 123.25 148.84
  L 123.25 156.48
  C 123.25 157.00 123.82 157.31 124.26 157.04
  C 124.77 156.73 124.98 156.21 124.90 155.47
  C 124.71 153.64 124.77 151.80 125.08 149.94
  C 125.15 149.52 125.40 149.36 125.81 149.47
  C 126.69 149.70 127.44 149.56 128.05 149.06
  C 128.48 148.71 128.22 148.01 127.67 148.03"
/>
<path stroke="#c2ccd9" vector-effect="non-scaling-stroke" d="
  M 131.04 154.93
  C 130.22 154.49 130.53 153.25 131.46 153.25
  L 135.24 153.25
  C 135.65 153.25 135.88 153.05 135.94 152.64
  C 136.86 146.33 128.26 146.78 128.81 152.78
  C 129.14 156.44 131.88 157.82 135.27 156.50
  C 135.53 156.40 135.68 156.11 135.60 155.84
  C 135.52 155.56 135.25 155.40 134.97 155.45
  C 133.51 155.73 132.20 155.56 131.04 154.93"
/>
<path stroke="#c2ccd9" vector-effect="non-scaling-stroke" d="
  M 141.92 155.53
  C 140.89 155.63 139.95 154.98 139.68 153.98
  C 138.94 151.14 140.02 149.00 143.16 149.55
  C 143.57 149.62 143.77 149.45 143.75 149.03
  C 143.75 148.94 143.75 148.85 143.76 148.75
  C 143.79 148.41 143.55 148.11 143.22 148.07
  C 135.52 147.04 136.42 159.10 143.71 156.67
  C 144.03 156.56 144.22 156.23 144.15 155.90
  C 144.08 155.57 143.78 155.35 143.44 155.38
  L 141.92 155.53"
/>
<path stroke="#c2ccd9" vector-effect="non-scaling-stroke" d="
  M 155.5240 156.9790
  C 157.69 156.93 159.41 154.89 159.3591 152.4077
  C 159.31 149.93 157.51 147.96 155.3360 148.0010
  C 153.17 148.05 151.45 150.09 151.5009 152.5723
  C 151.55 155.05 153.35 157.02 155.5240 156.9790"
/>
<path stroke="#c2ccd9" vector-effect="non-scaling-stroke" d="
  M 161.53 156.26
  C 161.54 156.66 161.87 156.99 162.27 156.98
  C 162.67 156.98 163.00 156.65 163.00 156.25
  L 163.01 149.97
  C 163.01 149.79 163.14 149.64 163.32 149.62
  L 165.93 149.29
  C 166.38 149.23 166.46 148.61 166.04 148.44
  C 164.73 147.91 163.37 147.90 161.97 148.43
  C 161.69 148.53 161.51 148.80 161.51 149.09
  C 161.48 151.50 161.49 153.89 161.53 156.26"
/>
<path stroke="#c2ccd9" vector-effect="non-scaling-stroke" d="
  M 170.42 154.12
  L 168.78 148.50
  C 168.68 148.16 168.45 147.99 168.09 148.00
  C 168.00 148.00 167.90 148.00 167.81 148.00
  C 167.44 147.99 167.17 148.33 167.25 148.69
  C 167.62 150.27 168.50 152.64 169.91 155.81
  C 170.48 157.10 170.14 157.99 168.89 158.48
  C 168.63 158.58 168.36 158.59 168.09 158.52
  C 167.60 158.39 167.23 158.52 167.00 158.90
  C 166.81 159.21 166.88 159.45 167.19 159.64
  C 171.20 162.04 173.51 152.11 174.12 148.49
  C 174.17 148.16 174.03 148.00 173.70 148.00
  L 173.40 148.00
  C 173.10 148.00 172.84 148.20 172.76 148.49
  L 171.25 154.11
  C 171.14 154.53 170.54 154.54 170.42 154.12"
/>
<path stroke="#c2ccd9" vector-effect="non-scaling-stroke" d="
  M 186.22 156.41
  C 186.33 152.22 186.95 145.94 179.97 148.42
  C 179.67 148.53 179.52 148.74 179.52 149.05
  C 179.47 151.41 179.48 153.77 179.54 156.12
  C 179.55 156.38 179.61 156.57 179.72 156.69
  C 179.88 156.86 180.09 156.97 180.36 157.02
  C 180.69 157.09 181.00 156.84 181.00 156.50
  L 181.00 150.08
  C 181.00 149.63 181.22 149.43 181.67 149.46
  L 183.65 149.61
  C 184.11 149.64 184.38 149.89 184.45 150.34
  C 184.72 152.00 184.83 153.67 184.77 155.35
  C 184.76 155.60 184.78 155.84 184.85 156.07
  C 185.02 156.72 185.28 157.03 185.63 157.02
  C 186.02 157.00 186.21 156.80 186.22 156.41"
/>
<path stroke="#c2ccd9" vector-effect="non-scaling-stroke" d="
  M 192.55 152.09
  C 190.24 151.60 188.77 152.39 188.13 154.44
  C 187.97 154.93 188.14 155.47 188.54 155.79
  C 190.21 157.11 192.10 157.42 194.22 156.72
  C 194.51 156.62 194.71 156.36 194.72 156.05
  C 194.78 152.86 195.36 145.50 189.13 148.56
  C 188.67 148.79 188.83 149.47 189.34 149.48
  L 192.13 149.51
  C 192.31 149.52 192.47 149.63 192.54 149.79
  L 193.17 151.35
  C 193.33 151.76 192.98 152.18 192.55 152.09"
/>
<path stroke="#c2ccd9" vector-effect="non-scaling-stroke" d="
  M 203.43 150.78
  C 203.41 149.91 204.08 149.19 204.95 149.14
  C 205.81 149.09 206.56 149.73 206.65 150.59
  C 206.80 152.08 206.86 153.82 206.62 155.40
  C 206.50 156.20 206.87 156.75 207.73 157.06
  C 208.09 157.18 208.45 156.91 208.44 156.53
  L 208.13 149.80
  C 208.12 149.53 207.99 149.28 207.79 149.09
  C 206.33 147.80 204.80 147.66 203.20 148.68
  C 202.92 148.86 202.56 148.87 202.27 148.71
  C 200.76 147.90 199.16 147.73 197.47 148.22
  C 197.19 148.30 196.99 148.55 196.99 148.85
  L 197.02 156.59
  C 197.03 156.83 197.22 157.02 197.46 157.01
  C 197.57 157.00 197.67 157.00 197.76 157.00
  C 198.25 157.02 198.50 156.78 198.50 156.28
  L 198.50 150.26
  C 198.50 149.97 198.64 149.76 198.91 149.64
  C 202.69 148.03 202.06 154.54 202.03 156.36
  C 202.02 156.77 202.22 156.99 202.63 157.01
  C 202.76 157.02 202.89 157.01 203.01 156.99
  C 203.36 156.92 203.54 156.70 203.53 156.34
  L 203.43 150.78"
/>
<path stroke="#c2ccd9" vector-effect="non-scaling-stroke" d="
  M 212.70 153.25
  L 216.96 153.25
  C 217.25 153.25 217.41 153.11 217.45 152.83
  C 217.86 150.16 216.05 147.22 212.99 148.26
  C 208.46 149.79 209.63 158.75 216.41 156.72
  C 216.62 156.65 216.76 156.56 216.85 156.43
  C 217.00 156.21 217.01 155.97 216.87 155.72
  C 216.73 155.48 216.45 155.36 216.19 155.43
  C 214.57 155.85 213.24 155.50 212.20 154.38
  C 211.80 153.95 212.11 153.25 212.70 153.25"
/>
<path stroke="#c2ccd9" vector-effect="non-scaling-stroke" d="
  M 115.05 154.61
  L 114.95 150.27
  C 114.94 149.82 114.56 149.45 114.10 149.46
  L 113.42 149.48
  C 112.04 149.51 110.94 150.65 110.97 152.02
  L 110.99 153.06
  C 111.02 154.42 112.17 155.51 113.56 155.48
  L 114.24 155.46
  C 114.70 155.45 115.06 155.07 115.05 154.61"
/>
<path stroke="#c2ccd9" vector-effect="non-scaling-stroke" d="
  M 80.47 151.99
  L 83.55 151.99
  C 83.80 151.99 83.99 151.79 83.99 151.55
  L 83.99 151.42
  C 83.99 150.36 83.15 149.51 82.11 149.51
  L 81.91 149.51
  C 80.87 149.51 80.03 150.37 80.03 151.42
  L 80.03 151.55
  C 80.03 151.80 80.23 151.99 80.47 151.99"
/>
<path stroke="#c2ccd9" vector-effect="non-scaling-stroke" d="
  M 102.22 155.31
  L 102.26 153.75
  C 102.27 153.50 102.07 153.29 101.82 153.28
  L 101.25 153.26
  C 99.89 153.22 98.78 153.69 98.76 154.32
  L 98.76 154.54
  C 98.74 155.16 99.82 155.70 101.17 155.74
  L 101.74 155.76
  C 102.00 155.76 102.21 155.57 102.22 155.31"
/>
<path stroke="#c2ccd9" vector-effect="non-scaling-stroke" d="
  M 130.95 151.98
  L 134.07 151.98
  C 134.31 151.98 134.50 151.79 134.50 151.55
  L 134.50 151.43
  C 134.50 150.38 133.66 149.52 132.62 149.52
  L 132.40 149.52
  C 131.36 149.52 130.52 150.37 130.52 151.43
  L 130.52 151.55
  C 130.52 151.78 130.71 151.98 130.95 151.98"
/>
<path stroke="#c2ccd9" vector-effect="non-scaling-stroke" d="
  M 155.4900 155.5700
  C 156.76 155.57 157.79 154.20 157.7900 152.5000
  C 157.79 150.80 156.76 149.43 155.4900 149.4300
  C 154.22 149.43 153.19 150.80 153.1900 152.5000
  C 153.19 154.20 154.22 155.57 155.4900 155.5700"
/>
<path stroke="#c2ccd9" vector-effect="non-scaling-stroke" d="
  M 193.23 155.29
  L 193.25 153.71
  C 193.25 153.46 193.04 153.25 192.79 153.25
  L 192.22 153.24
  C 190.87 153.24 189.77 153.73 189.76 154.36
  L 189.76 154.60
  C 189.75 155.22 190.85 155.74 192.20 155.74
  L 192.77 155.75
  C 193.03 155.75 193.23 155.55 193.23 155.29"
/>
<path stroke="#c2ccd9" vector-effect="non-scaling-stroke" d="
  M 212.50 152.01
  L 215.56 151.99
  C 215.80 151.99 216.00 151.79 216.00 151.55
  L 215.99 151.40
  C 215.99 150.34 215.14 149.49 214.10 149.50
  L 213.92 149.50
  C 212.88 149.51 212.05 150.37 212.05 151.42
  L 212.06 151.57
  C 212.06 151.82 212.26 152.01 212.50 152.01"
/>
<path stroke="#c77bf4" vector-effect="non-scaling-stroke" d="
  M 71.69 229.11
  C 62.70 232.06 64.51 217.56 71.23 220.96
  C 71.66 221.17 72.15 220.81 72.07 220.34
  C 71.98 219.79 71.70 219.47 71.23 219.37
  C 62.85 217.54 61.05 229.44 68.94 231.05
  C 70.60 231.39 71.70 230.94 72.24 229.71
  C 72.39 229.36 72.06 228.99 71.69 229.11"
/>
<path stroke="#c77bf4" vector-effect="non-scaling-stroke" d="
  M 99.27 228.81
  L 98.90 224.09
  C 98.85 223.53 99.11 223.25 99.67 223.25
  L 101.73 223.25
  C 101.92 223.25 102.09 223.13 102.14 222.95
  L 102.26 222.59
  C 102.34 222.34 102.16 222.08 101.89 222.07
  L 99.53 221.97
  C 99.28 221.96 99.08 221.77 99.06 221.52
  L 98.86 219.35
  C 98.84 219.16 98.69 219.02 98.50 219.01
  C 98.32 219.00 98.15 219.13 98.12 219.31
  C 97.57 222.30 97.44 225.31 97.73 228.34
  C 97.97 230.77 100.91 231.97 102.58 230.26
  C 102.86 229.98 102.66 229.50 102.26 229.50
  L 100.02 229.50
  C 99.63 229.50 99.30 229.20 99.27 228.81"
/>
<path stroke="#c77bf4" vector-effect="non-scaling-stroke" d="
  M 76.69 223.53
  L 78.39 223.43
  C 78.76 223.41 79.05 223.10 79.05 222.73
  C 79.05 222.36 78.75 222.05 78.38 222.04
  C 77.33 222.00 76.27 222.08 75.20 222.29
  C 74.67 222.39 74.29 222.85 74.28 223.39
  L 74.19 230.41
  C 74.18 230.77 74.36 230.96 74.72 230.97
  L 75.33 231.00
  C 75.67 231.02 75.95 230.74 75.94 230.41
  L 75.70 224.62
  C 75.67 224.05 76.11 223.56 76.69 223.53"
/>
<path stroke="#c77bf4" vector-effect="non-scaling-stroke" d="
  M 82.64 229.35
  C 82.01 229.31 81.52 228.77 81.55 228.14
  C 81.57 227.50 82.09 227.00 82.72 227.00
  L 86.28 227.00
  C 86.59 227.00 86.77 226.85 86.84 226.56
  C 88.52 219.79 77.41 221.31 80.15 228.32
  C 81.08 230.73 83.60 231.60 85.93 230.70
  C 86.52 230.48 86.39 229.61 85.77 229.57
  L 82.64 229.35"
/>
<path stroke="#c77bf4" vector-effect="non-scaling-stroke" d="
  M 93.02 226.01
  C 86.89 225.31 87.92 232.58 94.43 230.81
  C 94.76 230.72 94.94 230.51 94.96 230.16
  C 95.12 227.32 95.87 219.61 89.95 222.47
  C 89.61 222.63 89.59 223.11 89.91 223.31
  C 90.32 223.57 90.73 223.61 91.14 223.42
  C 91.55 223.23 91.96 223.23 92.37 223.43
  C 93.22 223.85 93.66 224.51 93.68 225.42
  C 93.69 225.77 93.37 226.05 93.02 226.01"
/>
<path stroke="#c77bf4" vector-effect="non-scaling-stroke" d="
  M 106.05 229.04
  C 105.08 228.48 105.48 227.00 106.60 227.00
  L 110.07 227.00
  C 110.44 227.00 110.65 226.82 110.70 226.45
  C 111.26 222.46 106.47 220.13 104.18 224.12
  C 102.15 227.67 105.12 232.25 109.59 230.67
  C 109.86 230.58 110.00 230.39 110.01 230.11
  C 110.02 229.96 110.00 229.81 109.97 229.67
  C 109.87 229.28 109.63 229.15 109.25 229.29
  C 108.10 229.70 107.04 229.61 106.05 229.04"
/>
<path stroke="#c77bf4" vector-effect="non-scaling-stroke" d="
  M 81.95 225.99
  L 85.05 225.99
  C 85.29 225.99 85.49 225.79 85.49 225.55
  L 85.49 225.42
  C 85.49 224.37 84.65 223.51 83.61 223.51
  L 83.39 223.51
  C 82.35 223.51 81.51 224.37 81.51 225.42
  L 81.51 225.55
  C 81.51 225.79 81.71 225.99 81.95 225.99"
/>
<path stroke="#c77bf4" vector-effect="non-scaling-stroke" d="
  M 92.79 227.09
  C 91.72 227.04 90.87 227.40 90.25 228.19
  C 90.04 228.45 90.10 228.84 90.38 229.03
  C 91.10 229.52 91.89 229.76 92.74 229.75
  C 93.46 229.74 94.04 229.16 94.06 228.44
  C 94.07 227.72 93.51 227.12 92.79 227.09"
/>
<path stroke="#c77bf4" vector-effect="non-scaling-stroke" d="
  M 105.72 226.01
  L 108.78 226.01
  C 109.03 226.01 109.23 225.81 109.23 225.56
  L 109.23 225.41
  C 109.23 224.35 108.41 223.49 107.39 223.49
  L 107.11 223.49
  C 106.10 223.49 105.27 224.35 105.27 225.41
  L 105.27 225.56
  C 105.27 225.81 105.47 226.01 105.72 226.01"
/>
</g>
<path fill="#c2c9d5" d="
  M 0.00 0.00
  L 549.00 0.00
  L 549.00 290.00
  L 0.00 290.00
  L 0.00 0.00
  Z
  M 531.00 33.26
  C 531.00 28.70 527.30 25.00 522.74 25.00
  L 27.26 25.00
  C 22.70 25.00 19.00 28.70 19.00 33.26
  L 19.00 260.74
  C 19.00 265.30 22.70 269.00 27.26 269.00
  L 522.74 269.00
  C 527.30 269.00 531.00 265.30 531.00 260.74
  L 531.00 33.26
  Z"
/>
<path fill="#e1e7f0" d="
  M 531.00 260.74
  C 531.00 265.30 527.30 269.00 522.74 269.00
  L 27.26 269.00
  C 22.70 269.00 19.00 265.30 19.00 260.74
  L 19.00 33.26
  C 19.00 28.70 22.70 25.00 27.26 25.00
  L 522.74 25.00
  C 527.30 25.00 531.00 28.70 531.00 33.26
  L 531.00 260.74
  Z
  M 191.03 51.81
  C 191.03 50.84 190.25 50.06 189.28 50.06
  C 188.31 50.06 187.53 50.84 187.53 51.81
  C 187.53 52.78 188.31 53.56 189.28 53.56
  C 190.25 53.56 191.03 52.78 191.03 51.81
  Z
  M 180.75 56.38
  C 170.05 53.95 169.27 72.05 183.77 68.36
  C 184.09 68.27 184.25 68.07 184.25 67.74
  L 184.25 50.86
  C 184.25 50.52 183.95 50.27 183.62 50.32
  L 181.92 50.57
  C 181.47 50.64 181.25 50.89 181.25 51.34
  L 181.25 55.98
  C 181.25 56.33 181.08 56.46 180.75 56.38
  Z
  M 502.55 55.42
  L 497.41 50.30
  C 497.17 50.05 496.75 50.10 496.57 50.40
  L 496.29 50.87
  C 496.18 51.06 496.21 51.30 496.36 51.45
  L 501.18 56.32
  C 501.56 56.70 501.56 57.31 501.18 57.69
  L 496.44 62.45
  C 496.20 62.69 496.20 63.08 496.44 63.32
  L 496.69 63.56
  C 496.93 63.80 497.32 63.80 497.56 63.56
  L 502.56 58.56
  C 502.85 58.27 503.15 58.27 503.44 58.56
  L 508.44 63.56
  C 508.68 63.80 509.07 63.80 509.31 63.56
  L 509.56 63.32
  C 509.80 63.08 509.80 62.69 509.56 62.45
  L 504.50 57.37
  C 504.25 57.12 504.25 56.88 504.50 56.63
  L 509.53 51.59
  C 509.72 51.40 509.76 51.11 509.65 50.87
  C 509.46 50.48 509.21 50.27 508.92 50.25
  C 508.67 50.24 508.38 50.42 508.05 50.79
  C 506.58 52.46 504.99 54.02 503.29 55.45
  C 503.04 55.67 502.79 55.66 502.55 55.42
  Z
  M 50.15 54.99
  C 51.00 55.18 51.55 55.29 51.80 55.33
  C 52.47 55.44 53.11 55.03 53.29 54.38
  C 53.48 53.74 53.15 53.05 52.53 52.79
  C 40.96 47.95 36.08 64.75 44.76 68.24
  C 47.35 69.29 50.12 69.21 53.06 68.02
  C 53.46 67.86 53.58 67.58 53.42 67.18
  L 52.89 65.81
  C 52.78 65.52 52.45 65.39 52.17 65.52
  C 41.65 70.45 40.37 52.80 50.15 54.99
  Z
  M 97.02 66.55
  C 96.16 66.71 95.34 66.08 95.29 65.20
  L 94.92 59.19
  C 94.89 58.73 95.11 58.50 95.57 58.50
  L 98.56 58.50
  C 99.21 58.50 99.74 58.01 99.80 57.36
  C 99.85 56.72 99.41 56.14 98.77 56.03
  C 97.94 55.89 96.87 55.90 95.55 56.07
  C 95.23 56.11 94.95 55.84 94.99 55.51
  L 95.30 52.94
  C 95.34 52.57 95.02 52.25 94.66 52.31
  L 92.85 52.58
  C 92.44 52.64 92.24 52.88 92.24 53.29
  C 92.27 57.74 89.78 72.29 99.39 68.52
  C 99.96 68.29 100.27 67.67 100.10 67.08
  C 99.93 66.48 99.34 66.12 98.73 66.23
  L 97.02 66.55
  Z
  M 232.36 58.50
  L 235.50 58.50
  C 236.00 58.50 236.25 58.25 236.25 57.75
  L 236.25 56.75
  C 236.25 56.25 236.00 56.00 235.50 56.00
  L 232.31 56.00
  C 231.94 56.00 231.66 55.67 231.71 55.30
  L 232.04 53.09
  C 232.10 52.71 231.79 52.38 231.40 52.41
  L 229.56 52.55
  C 229.16 52.58 228.96 52.79 228.96 53.20
  L 229.08 66.17
  C 229.09 66.59 229.26 66.98 229.56 67.26
  C 231.39 68.95 233.52 69.39 235.93 68.58
  C 236.31 68.45 236.50 68.19 236.50 67.79
  L 236.50 66.69
  C 236.50 66.31 236.12 66.04 235.76 66.18
  C 234.66 66.59 233.60 66.55 232.58 66.04
  C 232.27 65.89 232.07 65.58 232.05 65.24
  L 231.68 59.22
  C 231.66 58.83 231.97 58.50 232.36 58.50
  Z
  M 62.67 58.62
  C 63.01 58.64 63.32 58.42 63.42 58.09
  C 63.80 56.86 63.50 56.19 62.51 56.10
  C 60.49 55.91 58.48 56.14 56.48 56.79
  C 56.22 56.87 56.04 57.12 56.04 57.39
  L 56.08 68.42
  C 56.08 68.74 56.34 69.00 56.67 69.00
  L 58.50 69.00
  C 58.83 69.00 59.00 68.83 59.00 68.50
  L 59.00 59.09
  C 59.00 58.65 59.22 58.44 59.66 58.46
  L 62.67 58.62
  Z
  M 68.74 63.25
  L 75.76 63.25
  C 76.09 63.25 76.29 63.08 76.35 62.75
  C 77.58 55.65 68.35 53.41 65.71 59.79
  C 63.01 66.29 69.09 70.62 74.99 68.41
  C 75.34 68.28 75.52 68.02 75.51 67.65
  L 75.48 66.45
  C 75.47 65.96 75.23 65.80 74.76 65.97
  C 71.83 67.08 69.68 66.43 68.29 64.03
  C 67.99 63.51 68.14 63.25 68.74 63.25
  Z
  M 85.53 59.18
  C 86.47 59.74 85.96 61.19 84.88 61.03
  C 82.23 60.65 78.60 61.85 78.75 65.10
  C 78.96 69.98 85.32 69.12 88.24 68.53
  C 88.56 68.46 88.72 68.27 88.73 67.94
  C 88.86 61.50 90.55 54.23 80.48 56.45
  C 80.15 56.52 79.98 56.73 79.99 57.08
  L 80.03 58.40
  C 80.03 58.73 80.37 58.96 80.69 58.85
  C 82.45 58.20 84.06 58.31 85.53 59.18
  Z
  M 104.90 64.94
  C 104.24 64.35 104.65 63.25 105.54 63.25
  L 112.00 63.25
  C 112.29 63.25 112.54 63.03 112.59 62.74
  C 113.73 55.50 104.52 53.46 101.94 59.82
  C 99.27 66.37 105.28 70.48 111.20 68.48
  C 111.63 68.34 111.82 68.05 111.78 67.60
  L 111.65 66.32
  C 111.62 66.03 111.33 65.84 111.05 65.95
  C 108.72 66.85 106.67 66.51 104.90 64.94
  Z
  M 124.71 58.65
  C 130.34 56.89 129.08 65.58 128.97 68.41
  C 128.95 68.80 129.14 69.00 129.54 69.00
  L 131.21 69.00
  C 131.60 69.00 131.80 68.80 131.79 68.41
  C 131.64 61.48 133.12 53.00 121.85 56.64
  C 121.45 56.77 121.25 57.04 121.25 57.46
  L 121.25 68.25
  C 121.25 68.75 121.50 69.00 122.00 69.00
  L 123.75 69.00
  C 124.08 69.00 124.25 68.83 124.25 68.50
  L 124.25 59.27
  C 124.25 58.95 124.40 58.74 124.71 58.65
  Z
  M 138.01 63.80
  C 137.86 63.47 138.11 63.10 138.47 63.11
  L 145.42 63.30
  C 145.82 63.31 146.04 63.12 146.09 62.73
  C 146.62 58.24 143.38 55.01 139.26 56.25
  C 131.45 58.59 134.46 72.09 144.79 68.39
  C 145.18 68.26 145.34 67.99 145.28 67.58
  L 145.10 66.35
  C 145.04 65.98 144.66 65.77 144.33 65.91
  C 141.34 67.17 139.24 66.47 138.01 63.80
  Z
  M 152.75 64.49
  L 150.82 56.60
  C 150.72 56.20 150.47 56.00 150.06 56.00
  L 148.02 56.00
  C 147.66 56.00 147.53 56.17 147.64 56.52
  L 151.26 68.01
  C 151.76 69.61 154.03 69.59 154.51 67.99
  L 156.31 61.98
  C 156.39 61.71 156.77 61.71 156.85 61.98
  L 158.72 68.05
  C 159.21 69.63 161.44 69.64 161.94 68.06
  L 165.51 56.73
  C 165.62 56.37 165.36 56.00 164.98 56.00
  L 163.20 56.00
  C 162.83 56.00 162.59 56.18 162.50 56.55
  L 160.47 64.52
  C 160.39 64.83 159.96 64.83 159.88 64.53
  L 157.96 57.02
  C 157.62 55.68 155.72 55.68 155.37 57.02
  L 153.44 64.49
  C 153.35 64.85 152.84 64.85 152.75 64.49
  Z
  M 190.7825 56.3076
  C 190.78 56.16 190.67 56.05 190.5239 56.0463
  L 188.1639 56.0339
  C 188.02 56.03 187.90 56.15 187.9026 56.2925
  L 187.8375 68.7324
  C 187.84 68.88 187.95 68.99 188.0961 68.9937
  L 190.4561 69.0061
  C 190.60 69.01 190.72 68.89 190.7174 68.7475
  L 190.7825 56.3076
  Z
  M 197.25 59.06
  C 197.25 58.72 197.54 58.45 197.87 58.47
  L 201.13 58.65
  C 201.46 58.67 201.75 58.40 201.75 58.06
  L 201.75 56.41
  C 201.75 56.06 201.44 55.79 201.09 55.83
  L 194.77 56.56
  C 194.47 56.59 194.25 56.85 194.25 57.15
  L 194.25 68.41
  C 194.25 68.74 194.51 69.00 194.84 69.00
  L 196.66 69.00
  C 196.99 69.00 197.25 68.74 197.25 68.41
  L 197.25 59.06
  Z
  M 207.00 63.25
  L 214.00 63.25
  C 214.33 63.25 214.52 63.09 214.57 62.77
  C 215.28 58.47 211.58 54.67 207.56 56.23
  C 199.89 59.21 203.04 70.77 212.55 68.85
  C 213.76 68.60 214.12 67.80 213.61 66.43
  C 213.48 66.08 213.09 65.90 212.74 66.03
  C 209.95 67.05 207.88 66.38 206.55 64.02
  C 206.26 63.51 206.41 63.25 207.00 63.25
  Z
  M 226.06 66.19
  C 216.93 67.89 219.41 56.26 225.52 58.96
  C 225.91 59.13 226.14 59.01 226.23 58.60
  L 226.54 57.13
  C 226.61 56.79 226.48 56.56 226.15 56.45
  C 215.33 52.90 213.00 71.27 226.20 68.64
  C 226.57 68.57 226.75 68.35 226.75 67.98
  L 226.75 66.76
  C 226.75 66.40 226.42 66.12 226.06 66.19
  Z
  M 244.1942 69.0399
  C 247.52 69.02 250.20 66.08 250.1799 62.4685
  C 250.16 58.86 247.45 55.94 244.1258 55.9601
  C 240.80 55.98 238.12 58.92 238.1401 62.5315
  C 238.16 66.14 240.87 69.06 244.1942 69.0399
  Z
  M 256.95 58.47
  L 260.16 58.65
  C 260.48 58.67 260.75 58.41 260.75 58.09
  L 260.75 56.76
  C 260.75 56.37 260.56 56.16 260.18 56.12
  C 258.00 55.88 255.86 56.10 253.77 56.77
  C 253.42 56.88 253.25 57.12 253.25 57.49
  L 253.25 68.50
  C 253.25 68.83 253.42 69.00 253.75 69.00
  L 255.75 69.00
  C 256.08 69.00 256.25 68.83 256.25 68.50
  L 256.25 59.13
  C 256.25 58.75 256.57 58.45 256.95 58.47
  Z
  M 268.24 64.53
  C 268.15 64.86 267.69 64.87 267.58 64.55
  L 264.86 56.48
  C 264.75 56.16 264.53 56.00 264.19 56.00
  L 262.45 56.00
  C 262.00 56.00 261.69 56.45 261.85 56.87
  L 266.19 67.93
  C 266.33 68.28 266.32 68.64 266.15 68.99
  C 265.46 70.42 264.29 70.84 262.63 70.25
  C 262.14 70.08 261.87 70.25 261.83 70.77
  L 261.72 72.14
  C 261.70 72.46 261.84 72.66 262.15 72.73
  C 269.19 74.54 271.69 62.83 273.27 56.63
  C 273.38 56.21 273.22 56.00 272.79 56.00
  L 271.26 56.00
  C 270.85 56.00 270.58 56.20 270.47 56.60
  L 268.24 64.53
  Z
  M 61.78 115.16
  C 62.40 115.45 62.96 114.66 62.49 114.16
  L 61.53 113.13
  C 61.34 112.93 61.25 112.70 61.25 112.43
  L 61.25 102.50
  C 61.25 102.17 61.08 102.00 60.75 102.00
  L 60.27 102.00
  C 59.94 102.00 59.77 102.17 59.77 102.50
  C 59.75 105.58 58.53 113.68 61.78 115.16
  Z
  M 49.00 102.90
  C 49.17 103.64 49.51 104.00 50.00 103.98
  C 50.49 103.97 50.85 103.68 51.07 103.13
  C 51.24 102.71 50.93 102.25 50.48 102.25
  L 49.52 102.25
  C 49.18 102.25 48.92 102.57 49.00 102.90
  Z
  M 42.75 105.09
  L 42.75 114.37
  C 42.75 114.79 42.96 115.00 43.37 115.00
  L 43.75 115.00
  C 44.08 115.00 44.25 114.83 44.25 114.50
  L 44.25 105.13
  C 44.25 104.71 44.46 104.50 44.88 104.50
  L 47.00 104.50
  C 47.41 104.50 47.74 104.17 47.74 103.77
  C 47.75 103.36 47.43 103.02 47.02 103.01
  C 44.45 102.92 41.89 102.97 39.32 103.17
  C 39.05 103.19 38.83 103.42 38.83 103.69
  C 38.82 103.96 39.02 104.20 39.29 104.23
  L 42.33 104.62
  C 42.61 104.65 42.75 104.81 42.75 105.09
  Z
  M 54.81 105.47
  L 54.63 103.86
  C 54.59 103.49 54.27 103.22 53.90 103.24
  C 53.52 103.26 53.23 103.57 53.23 103.94
  C 53.21 106.87 53.31 109.78 53.53 112.67
  C 53.70 114.84 56.40 115.95 57.74 114.58
  C 58.15 114.16 57.85 113.46 57.27 113.47
  L 55.55 113.51
  C 55.12 113.52 54.76 113.17 54.76 112.74
  L 54.74 107.93
  C 54.74 107.57 55.02 107.29 55.38 107.28
  L 57.71 107.22
  C 57.98 107.21 58.20 107.00 58.21 106.73
  C 58.22 106.46 58.03 106.23 57.76 106.20
  L 55.25 105.91
  C 54.98 105.88 54.84 105.74 54.81 105.47
  Z
  M 50.8556 106.4170
  C 50.86 106.21 50.69 106.04 50.4789 106.0337
  L 49.6589 106.0266
  C 49.45 106.02 49.28 106.19 49.2756 106.4033
  L 49.2044 114.5630
  C 49.20 114.77 49.37 114.94 49.5811 114.9463
  L 50.4011 114.9534
  C 50.61 114.96 50.78 114.79 50.7844 114.5767
  L 50.8556 106.4170
  Z
  M 66.07 112.94
  C 65.25 112.50 65.57 111.25 66.50 111.25
  L 70.26 111.25
  C 70.67 111.25 70.91 111.05 70.96 110.64
  C 71.25 108.52 70.25 106.41 68.02 106.03
  C 62.48 105.08 61.87 117.61 70.28 114.54
  C 70.56 114.44 70.71 114.14 70.63 113.85
  C 70.55 113.57 70.26 113.39 69.97 113.45
  C 68.54 113.74 67.24 113.57 66.07 112.94
  Z
  M 510.99 133.25
  C 510.99 128.69 507.30 125.00 502.74 125.00
  L 47.26 125.00
  C 42.70 125.00 39.01 128.69 39.01 133.25
  L 39.01 168.75
  C 39.01 173.31 42.70 177.00 47.26 177.00
  L 502.74 177.00
  C 507.30 177.00 510.99 173.31 510.99 168.75
  L 510.99 133.25
  Z
  M 135.99 209.10
  C 135.99 204.63 132.36 201.00 127.89 201.00
  L 47.11 201.00
  C 42.64 201.00 39.01 204.63 39.01 209.10
  L 39.01 240.90
  C 39.01 245.37 42.64 249.00 47.11 249.00
  L 127.89 249.00
  C 132.36 249.00 135.99 245.37 135.99 240.90
  L 135.99 209.10
  Z"
/>
<circle fill="#455369" cx="189.28" cy="51.81" r="1.75"/>
<path fill="#455369" d="
  M 181.25 55.98
  L 181.25 51.34
  C 181.25 50.89 181.47 50.64 181.92 50.57
  L 183.62 50.32
  C 183.95 50.27 184.25 50.52 184.25 50.86
  L 184.25 67.74
  C 184.25 68.07 184.09 68.27 183.77 68.36
  C 169.27 72.05 170.05 53.95 180.75 56.38
  C 181.08 56.46 181.25 56.33 181.25 55.98
  Z
  M 181.40 65.22
  L 181.18 59.83
  C 181.15 59.17 180.60 58.66 179.94 58.68
  L 178.83 58.73
  C 177.18 58.80 175.89 60.31 175.97 62.11
  L 176.02 63.37
  C 176.09 65.16 177.49 66.57 179.15 66.50
  L 180.25 66.46
  C 180.91 66.43 181.42 65.88 181.40 65.22
  Z"
/>
<path fill="#455369" d="
  M 503.29 55.45
  C 504.99 54.02 506.58 52.46 508.05 50.79
  C 508.38 50.42 508.67 50.24 508.92 50.25
  C 509.21 50.27 509.46 50.48 509.65 50.87
  C 509.76 51.11 509.72 51.40 509.53 51.59
  L 504.50 56.63
  C 504.25 56.88 504.25 57.12 504.50 57.37
  L 509.56 62.45
  C 509.80 62.69 509.80 63.08 509.56 63.32
  L 509.31 63.56
  C 509.07 63.80 508.68 63.80 508.44 63.56
  L 503.44 58.56
  C 503.15 58.27 502.85 58.27 502.56 58.56
  L 497.56 63.56
  C 497.32 63.80 496.93 63.80 496.69 63.56
  L 496.44 63.32
  C 496.20 63.08 496.20 62.69 496.44 62.45
  L 501.18 57.69
  C 501.56 57.31 501.56 56.70 501.18 56.32
  L 496.36 51.45
  C 496.21 51.30 496.18 51.06 496.29 50.87
  L 496.57 50.40
  C 496.75 50.10 497.17 50.05 497.41 50.30
  L 502.55 55.42
  C 502.79 55.66 503.04 55.67 503.29 55.45
  Z"
/>
<path fill="#455369" d="
  M 50.15 54.99
  C 40.37 52.80 41.65 70.45 52.17 65.52
  C 52.45 65.39 52.78 65.52 52.89 65.81
  L 53.42 67.18
  C 53.58 67.58 53.46 67.86 53.06 68.02
  C 50.12 69.21 47.35 69.29 44.76 68.24
  C 36.08 64.75 40.96 47.95 52.53 52.79
  C 53.15 53.05 53.48 53.74 53.29 54.38
  C 53.11 55.03 52.47 55.44 51.80 55.33
  C 51.55 55.29 51.00 55.18 50.15 54.99
  Z"
/>
<path fill="#455369" d="
  M 97.02 66.55
  L 98.73 66.23
  C 99.34 66.12 99.93 66.48 100.10 67.08
  C 100.27 67.67 99.96 68.29 99.39 68.52
  C 89.78 72.29 92.27 57.74 92.24 53.29
  C 92.24 52.88 92.44 52.64 92.85 52.58
  L 94.66 52.31
  C 95.02 52.25 95.34 52.57 95.30 52.94
  L 94.99 55.51
  C 94.95 55.84 95.23 56.11 95.55 56.07
  C 96.87 55.90 97.94 55.89 98.77 56.03
  C 99.41 56.14 99.85 56.72 99.80 57.36
  C 99.74 58.01 99.21 58.50 98.56 58.50
  L 95.57 58.50
  C 95.11 58.50 94.89 58.73 94.92 59.19
  L 95.29 65.20
  C 95.34 66.08 96.16 66.71 97.02 66.55
  Z"
/>
<path fill="#455369" d="
  M 231.68 59.22
  L 232.05 65.24
  C 232.07 65.58 232.27 65.89 232.58 66.04
  C 233.60 66.55 234.66 66.59 235.76 66.18
  C 236.12 66.04 236.50 66.31 236.50 66.69
  L 236.50 67.79
  C 236.50 68.19 236.31 68.45 235.93 68.58
  C 233.52 69.39 231.39 68.95 229.56 67.26
  C 229.26 66.98 229.09 66.59 229.08 66.17
  L 228.96 53.20
  C 228.96 52.79 229.16 52.58 229.56 52.55
  L 231.40 52.41
  C 231.79 52.38 232.10 52.71 232.04 53.09
  L 231.71 55.30
  C 231.66 55.67 231.94 56.00 232.31 56.00
  L 235.50 56.00
  C 236.00 56.00 236.25 56.25 236.25 56.75
  L 236.25 57.75
  C 236.25 58.25 236.00 58.50 235.50 58.50
  L 232.36 58.50
  C 231.97 58.50 231.66 58.83 231.68 59.22
  Z"
/>
<path fill="#455369" d="
  M 62.67 58.62
  L 59.66 58.46
  C 59.22 58.44 59.00 58.65 59.00 59.09
  L 59.00 68.50
  C 59.00 68.83 58.83 69.00 58.50 69.00
  L 56.67 69.00
  C 56.34 69.00 56.08 68.74 56.08 68.42
  L 56.04 57.39
  C 56.04 57.12 56.22 56.87 56.48 56.79
  C 58.48 56.14 60.49 55.91 62.51 56.10
  C 63.50 56.19 63.80 56.86 63.42 58.09
  C 63.32 58.42 63.01 58.64 62.67 58.62
  Z"
/>
<path fill="#455369" d="
  M 68.29 64.03
  C 69.68 66.43 71.83 67.08 74.76 65.97
  C 75.23 65.80 75.47 65.96 75.48 66.45
  L 75.51 67.65
  C 75.52 68.02 75.34 68.28 74.99 68.41
  C 69.09 70.62 63.01 66.29 65.71 59.79
  C 68.35 53.41 77.58 55.65 76.35 62.75
  C 76.29 63.08 76.09 63.25 75.76 63.25
  L 68.74 63.25
  C 68.14 63.25 67.99 63.51 68.29 64.03
  Z
  M 68.53 61.02
  L 73.33 60.96
  C 73.42 60.96 73.49 60.88 73.48 60.79
  L 73.48 60.70
  C 73.47 59.51 72.36 58.55 71.01 58.57
  L 70.77 58.57
  C 69.43 58.59 68.35 59.58 68.36 60.78
  L 68.36 60.87
  C 68.37 60.95 68.44 61.02 68.53 61.02
  Z"
/>
<path fill="#455369" d="
  M 85.53 59.18
  C 84.06 58.31 82.45 58.20 80.69 58.85
  C 80.37 58.96 80.03 58.73 80.03 58.40
  L 79.99 57.08
  C 79.98 56.73 80.15 56.52 80.48 56.45
  C 90.55 54.23 88.86 61.50 88.73 67.94
  C 88.72 68.27 88.56 68.46 88.24 68.53
  C 85.32 69.12 78.96 69.98 78.75 65.10
  C 78.60 61.85 82.23 60.65 84.88 61.03
  C 85.96 61.19 86.47 59.74 85.53 59.18
  Z
  M 86.01 65.94
  L 86.01 63.96
  C 86.01 63.56 85.69 63.23 85.28 63.23
  L 83.74 63.23
  C 82.64 63.23 81.75 63.87 81.75 64.67
  L 81.75 65.23
  C 81.75 66.02 82.64 66.67 83.74 66.67
  L 85.28 66.67
  C 85.68 66.67 86.01 66.35 86.01 65.94
  Z"
/>
<path fill="#455369" d="
  M 104.90 64.94
  C 106.67 66.51 108.72 66.85 111.05 65.95
  C 111.33 65.84 111.62 66.03 111.65 66.32
  L 111.78 67.60
  C 111.82 68.05 111.63 68.34 111.20 68.48
  C 105.28 70.48 99.27 66.37 101.94 59.82
  C 104.52 53.46 113.73 55.50 112.59 62.74
  C 112.54 63.03 112.29 63.25 112.00 63.25
  L 105.54 63.25
  C 104.65 63.25 104.24 64.35 104.90 64.94
  Z
  M 104.74 61.06
  L 109.58 60.94
  C 109.68 60.94 109.77 60.85 109.76 60.75
  L 109.76 60.65
  C 109.73 59.44 108.62 58.48 107.27 58.52
  L 106.93 58.52
  C 105.58 58.56 104.51 59.56 104.54 60.77
  L 104.55 60.87
  C 104.55 60.98 104.64 61.06 104.74 61.06
  Z"
/>
<path fill="#455369" d="
  M 124.25 59.27
  L 124.25 68.50
  C 124.25 68.83 124.08 69.00 123.75 69.00
  L 122.00 69.00
  C 121.50 69.00 121.25 68.75 121.25 68.25
  L 121.25 57.46
  C 121.25 57.04 121.45 56.77 121.85 56.64
  C 133.12 53.00 131.64 61.48 131.79 68.41
  C 131.80 68.80 131.60 69.00 131.21 69.00
  L 129.54 69.00
  C 129.14 69.00 128.95 68.80 128.97 68.41
  C 129.08 65.58 130.34 56.89 124.71 58.65
  C 124.40 58.74 124.25 58.95 124.25 59.27
  Z"
/>
<path fill="#455369" d="
  M 138.01 63.80
  C 139.24 66.47 141.34 67.17 144.33 65.91
  C 144.66 65.77 145.04 65.98 145.10 66.35
  L 145.28 67.58
  C 145.34 67.99 145.18 68.26 144.79 68.39
  C 134.46 72.09 131.45 58.59 139.26 56.25
  C 143.38 55.01 146.62 58.24 146.09 62.73
  C 146.04 63.12 145.82 63.31 145.42 63.30
  L 138.47 63.11
  C 138.11 63.10 137.86 63.47 138.01 63.80
  Z
  M 138.27 61.04
  L 143.11 60.92
  C 143.19 60.91 143.25 60.85 143.25 60.77
  L 143.24 60.69
  C 143.21 59.49 142.10 58.54 140.75 58.58
  L 140.51 58.58
  C 139.16 58.62 138.10 59.62 138.13 60.83
  L 138.13 60.91
  C 138.13 60.98 138.19 61.04 138.27 61.04
  Z"
/>
<path fill="#455369" d="
  M 152.75 64.49
  C 152.84 64.85 153.35 64.85 153.44 64.49
  L 155.37 57.02
  C 155.72 55.68 157.62 55.68 157.96 57.02
  L 159.88 64.53
  C 159.96 64.83 160.39 64.83 160.47 64.52
  L 162.50 56.55
  C 162.59 56.18 162.83 56.00 163.20 56.00
  L 164.98 56.00
  C 165.36 56.00 165.62 56.37 165.51 56.73
  L 161.94 68.06
  C 161.44 69.64 159.21 69.63 158.72 68.05
  L 156.85 61.98
  C 156.77 61.71 156.39 61.71 156.31 61.98
  L 154.51 67.99
  C 154.03 69.59 151.76 69.61 151.26 68.01
  L 147.64 56.52
  C 147.53 56.17 147.66 56.00 148.02 56.00
  L 150.06 56.00
  C 150.47 56.00 150.72 56.20 150.82 56.60
  L 152.75 64.49
  Z"
/>
<rect fill="#455369" x="-1.44" y="-6.48" transform="translate(189.31,62.52) rotate(0.3)" width="2.88" height="12.96" rx="0.26"/>
<path fill="#455369" d="
  M 197.25 59.06
  L 197.25 68.41
  C 197.25 68.74 196.99 69.00 196.66 69.00
  L 194.84 69.00
  C 194.51 69.00 194.25 68.74 194.25 68.41
  L 194.25 57.15
  C 194.25 56.85 194.47 56.59 194.77 56.56
  L 201.09 55.83
  C 201.44 55.79 201.75 56.06 201.75 56.41
  L 201.75 58.06
  C 201.75 58.40 201.46 58.67 201.13 58.65
  L 197.87 58.47
  C 197.54 58.45 197.25 58.72 197.25 59.06
  Z"
/>
<path fill="#455369" d="
  M 206.55 64.02
  C 207.88 66.38 209.95 67.05 212.74 66.03
  C 213.09 65.90 213.48 66.08 213.61 66.43
  C 214.12 67.80 213.76 68.60 212.55 68.85
  C 203.04 70.77 199.89 59.21 207.56 56.23
  C 211.58 54.67 215.28 58.47 214.57 62.77
  C 214.52 63.09 214.33 63.25 214.00 63.25
  L 207.00 63.25
  C 206.41 63.25 206.26 63.51 206.55 64.02
  Z
  M 206.74 60.99
  L 211.54 60.99
  C 211.65 60.99 211.73 60.90 211.73 60.80
  L 211.73 60.72
  C 211.73 59.51 210.64 58.53 209.29 58.53
  L 208.99 58.53
  C 207.64 58.53 206.55 59.52 206.55 60.72
  L 206.55 60.80
  C 206.55 60.91 206.64 60.99 206.74 60.99
  Z"
/>
<path fill="#455369" d="
  M 225.52 58.96
  C 219.41 56.26 216.93 67.89 226.06 66.19
  C 226.42 66.12 226.75 66.40 226.75 66.76
  L 226.75 67.98
  C 226.75 68.35 226.57 68.57 226.20 68.64
  C 213.00 71.27 215.33 52.90 226.15 56.45
  C 226.48 56.56 226.61 56.79 226.54 57.13
  L 226.23 58.60
  C 226.14 59.01 225.91 59.13 225.52 58.96
  Z"
/>
<path fill="#455369" d="
  M 244.1942 69.0399
  C 240.87 69.06 238.16 66.14 238.1401 62.5315
  C 238.12 58.92 240.80 55.98 244.1258 55.9601
  C 247.45 55.94 250.16 58.86 250.1799 62.4685
  C 250.20 66.08 247.52 69.02 244.1942 69.0399
  Z
  M 244.1461 66.4800
  C 245.81 66.49 247.16 64.71 247.1700 62.5205
  C 247.18 60.33 245.84 58.55 244.1739 58.5400
  C 242.51 58.53 241.16 60.31 241.1500 62.4995
  C 241.14 64.69 242.48 66.47 244.1461 66.4800
  Z"
/>
<path fill="#455369" d="
  M 256.25 59.13
  L 256.25 68.50
  C 256.25 68.83 256.08 69.00 255.75 69.00
  L 253.75 69.00
  C 253.42 69.00 253.25 68.83 253.25 68.50
  L 253.25 57.49
  C 253.25 57.12 253.42 56.88 253.77 56.77
  C 255.86 56.10 258.00 55.88 260.18 56.12
  C 260.56 56.16 260.75 56.37 260.75 56.76
  L 260.75 58.09
  C 260.75 58.41 260.48 58.67 260.16 58.65
  L 256.95 58.47
  C 256.57 58.45 256.25 58.75 256.25 59.13
  Z"
/>
<path fill="#455369" d="
  M 268.24 64.53
  L 270.47 56.60
  C 270.58 56.20 270.85 56.00 271.26 56.00
  L 272.79 56.00
  C 273.22 56.00 273.38 56.21 273.27 56.63
  C 271.69 62.83 269.19 74.54 262.15 72.73
  C 261.84 72.66 261.70 72.46 261.72 72.14
  L 261.83 70.77
  C 261.87 70.25 262.14 70.08 262.63 70.25
  C 264.29 70.84 265.46 70.42 266.15 68.99
  C 266.32 68.64 266.33 68.28 266.19 67.93
  L 261.85 56.87
  C 261.69 56.45 262.00 56.00 262.45 56.00
  L 264.19 56.00
  C 264.53 56.00 264.75 56.16 264.86 56.48
  L 267.58 64.55
  C 267.69 64.87 268.15 64.86 268.24 64.53
  Z"
/>
<path fill="#e1e7f0" d="
  M 68.53 61.02
  C 68.44 61.02 68.37 60.95 68.36 60.87
  L 68.36 60.78
  C 68.35 59.58 69.43 58.59 70.77 58.57
  L 71.01 58.57
  C 72.36 58.55 73.47 59.51 73.48 60.70
  L 73.48 60.79
  C 73.49 60.88 73.42 60.96 73.33 60.96
  L 68.53 61.02
  Z"
/>
<path fill="#e1e7f0" d="
  M 104.74 61.06
  C 104.64 61.06 104.55 60.98 104.55 60.87
  L 104.54 60.77
  C 104.51 59.56 105.58 58.56 106.93 58.52
  L 107.27 58.52
  C 108.62 58.48 109.73 59.44 109.76 60.65
  L 109.76 60.75
  C 109.77 60.85 109.68 60.94 109.58 60.94
  L 104.74 61.06
  Z"
/>
<path fill="#e1e7f0" d="
  M 138.27 61.04
  C 138.19 61.04 138.13 60.98 138.13 60.91
  L 138.13 60.83
  C 138.10 59.62 139.16 58.62 140.51 58.58
  L 140.75 58.58
  C 142.10 58.54 143.21 59.49 143.24 60.69
  L 143.25 60.77
  C 143.25 60.85 143.19 60.91 143.11 60.92
  L 138.27 61.04
  Z"
/>
<path fill="#e1e7f0" d="
  M 206.74 60.99
  C 206.64 60.99 206.55 60.91 206.55 60.80
  L 206.55 60.72
  C 206.55 59.52 207.64 58.53 208.99 58.53
  L 209.29 58.53
  C 210.64 58.53 211.73 59.51 211.73 60.72
  L 211.73 60.80
  C 211.73 60.90 211.65 60.99 211.54 60.99
  L 206.74 60.99
  Z"
/>
<ellipse fill="#e1e7f0" cx="0.00" cy="0.00" transform="translate(244.16,62.51) rotate(90.2)" rx="3.97" ry="3.01"/>
<path fill="#e1e7f0" d="
  M 181.40 65.22
  C 181.42 65.88 180.91 66.43 180.25 66.46
  L 179.15 66.50
  C 177.49 66.57 176.09 65.16 176.02 63.37
  L 175.97 62.11
  C 175.89 60.31 177.18 58.80 178.83 58.73
  L 179.94 58.68
  C 180.60 58.66 181.15 59.17 181.18 59.83
  L 181.40 65.22
  Z"
/>
<path fill="#e1e7f0" d="
  M 86.01 65.94
  C 86.01 66.35 85.68 66.67 85.28 66.67
  L 83.74 66.67
  C 82.64 66.67 81.75 66.02 81.75 65.23
  L 81.75 64.67
  C 81.75 63.87 82.64 63.23 83.74 63.23
  L 85.28 63.23
  C 85.69 63.23 86.01 63.56 86.01 63.96
  L 86.01 65.94
  Z"
/>
<path fill="#455369" d="
  M 61.78 115.16
  C 58.53 113.68 59.75 105.58 59.77 102.50
  C 59.77 102.17 59.94 102.00 60.27 102.00
  L 60.75 102.00
  C 61.08 102.00 61.25 102.17 61.25 102.50
  L 61.25 112.43
  C 61.25 112.70 61.34 112.93 61.53 113.13
  L 62.49 114.16
  C 62.96 114.66 62.40 115.45 61.78 115.16
  Z"
/>
<path fill="#455369" d="
  M 49.00 102.90
  C 48.92 102.57 49.18 102.25 49.52 102.25
  L 50.48 102.25
  C 50.93 102.25 51.24 102.71 51.07 103.13
  C 50.85 103.68 50.49 103.97 50.00 103.98
  C 49.51 104.00 49.17 103.64 49.00 102.90
  Z"
/>
<path fill="#455369" d="
  M 42.33 104.62
  L 39.29 104.23
  C 39.02 104.20 38.82 103.96 38.83 103.69
  C 38.83 103.42 39.05 103.19 39.32 103.17
  C 41.89 102.97 44.45 102.92 47.02 103.01
  C 47.43 103.02 47.75 103.36 47.74 103.77
  C 47.74 104.17 47.41 104.50 47.00 104.50
  L 44.88 104.50
  C 44.46 104.50 44.25 104.71 44.25 105.13
  L 44.25 114.50
  C 44.25 114.83 44.08 115.00 43.75 115.00
  L 43.37 115.00
  C 42.96 115.00 42.75 114.79 42.75 114.37
  L 42.75 105.09
  C 42.75 104.81 42.61 104.65 42.33 104.62
  Z"
/>
<path fill="#455369" d="
  M 55.25 105.91
  L 57.76 106.20
  C 58.03 106.23 58.22 106.46 58.21 106.73
  C 58.20 107.00 57.98 107.21 57.71 107.22
  L 55.38 107.28
  C 55.02 107.29 54.74 107.57 54.74 107.93
  L 54.76 112.74
  C 54.76 113.17 55.12 113.52 55.55 113.51
  L 57.27 113.47
  C 57.85 113.46 58.15 114.16 57.74 114.58
  C 56.40 115.95 53.70 114.84 53.53 112.67
  C 53.31 109.78 53.21 106.87 53.23 103.94
  C 53.23 103.57 53.52 103.26 53.90 103.24
  C 54.27 103.22 54.59 103.49 54.63 103.86
  L 54.81 105.47
  C 54.84 105.74 54.98 105.88 55.25 105.91
  Z"
/>
<rect fill="#455369" x="-0.79" y="-4.46" transform="translate(50.03,110.49) rotate(0.5)" width="1.58" height="8.92" rx="0.38"/>
<path fill="#455369" d="
  M 66.07 112.94
  C 67.24 113.57 68.54 113.74 69.97 113.45
  C 70.26 113.39 70.55 113.57 70.63 113.85
  C 70.71 114.14 70.56 114.44 70.28 114.54
  C 61.87 117.61 62.48 105.08 68.02 106.03
  C 70.25 106.41 71.25 108.52 70.96 110.64
  C 70.91 111.05 70.67 111.25 70.26 111.25
  L 66.50 111.25
  C 65.57 111.25 65.25 112.50 66.07 112.94
  Z
  M 66.01 110.00
  L 69.05 109.94
  C 69.28 109.93 69.46 109.74 69.46 109.51
  L 69.45 109.38
  C 69.43 108.32 68.57 107.49 67.53 107.51
  L 67.41 107.51
  C 66.37 107.54 65.55 108.41 65.58 109.46
  L 65.58 109.59
  C 65.58 109.83 65.78 110.01 66.01 110.00
  Z"
/>
<path fill="#e1e7f0" d="
  M 66.01 110.00
  C 65.78 110.01 65.58 109.83 65.58 109.59
  L 65.58 109.46
  C 65.55 108.41 66.37 107.54 67.41 107.51
  L 67.53 107.51
  C 68.57 107.49 69.43 108.32 69.45 109.38
  L 69.46 109.51
  C 69.46 109.74 69.28 109.93 69.05 109.94
  L 66.01 110.00
  Z"
/>
<path fill="#f0f5f9" d="
  M 510.99 168.75
  C 510.99 173.31 507.30 177.00 502.74 177.00
  L 47.26 177.00
  C 42.70 177.00 39.01 173.31 39.01 168.75
  L 39.01 133.25
  C 39.01 128.69 42.70 125.00 47.26 125.00
  L 502.74 125.00
  C 507.30 125.00 510.99 128.69 510.99 133.25
  L 510.99 168.75
  Z
  M 114.42 148.24
  C 107.06 146.45 107.60 159.85 116.21 156.56
  C 116.58 156.42 116.77 156.15 116.76 155.75
  L 116.71 144.71
  C 116.70 144.25 116.47 144.01 116.01 144.00
  C 115.90 144.00 115.79 144.00 115.67 144.00
  C 115.47 144.01 115.31 144.16 115.30 144.36
  L 115.15 147.70
  C 115.13 148.17 114.89 148.35 114.42 148.24
  Z
  M 121.02 145.01
  C 121.02 144.46 120.57 144.01 120.02 144.01
  C 119.47 144.01 119.02 144.46 119.02 145.01
  C 119.02 145.56 119.47 146.01 120.02 146.01
  C 120.57 146.01 121.02 145.56 121.02 145.01
  Z
  M 56.35 146.36
  C 57.49 146.29 58.63 146.34 59.76 146.50
  C 60.55 146.61 61.03 146.37 61.20 145.77
  C 61.31 145.39 61.03 145.01 60.63 145.01
  L 54.98 145.00
  C 54.64 144.99 54.47 145.16 54.47 145.51
  L 54.47 156.46
  C 54.47 156.77 54.72 157.02 55.03 157.02
  L 61.07 156.97
  C 61.47 156.97 61.83 156.64 61.86 156.24
  C 61.89 155.83 61.59 155.51 61.19 155.51
  L 56.53 155.51
  C 56.18 155.51 56.00 155.33 56.00 154.97
  L 56.00 151.88
  C 56.00 151.46 56.21 151.25 56.62 151.25
  L 60.17 151.25
  C 60.49 151.25 60.75 151.00 60.76 150.68
  C 60.78 150.36 60.54 150.09 60.22 150.06
  C 58.99 149.95 57.75 149.94 56.49 150.04
  C 56.10 150.07 55.78 149.77 55.77 149.38
  L 55.74 147.01
  C 55.73 146.60 55.94 146.39 56.35 146.36
  Z
  M 74.12 147.59
  L 73.74 145.62
  C 73.68 145.31 73.40 145.10 73.09 145.12
  C 72.78 145.15 72.54 145.41 72.53 145.72
  C 72.48 148.56 70.78 159.18 76.93 156.60
  C 77.21 156.49 77.31 156.27 77.24 155.95
  C 77.18 155.70 76.96 155.52 76.70 155.51
  L 74.68 155.48
  C 74.31 155.47 74.01 155.18 74.01 154.81
  L 73.99 149.98
  C 73.99 149.46 74.25 149.21 74.77 149.24
  L 76.45 149.32
  C 76.70 149.33 76.86 149.22 76.93 148.97
  L 77.00 148.71
  C 77.12 148.24 76.94 148.00 76.45 148.00
  L 74.62 148.00
  C 74.34 148.00 74.17 147.86 74.12 147.59
  Z
  M 147.13 147.07
  L 147.30 146.22
  C 147.39 145.74 147.20 145.50 146.71 145.50
  L 146.04 145.50
  C 145.81 145.50 145.62 145.69 145.64 145.92
  C 145.80 148.82 144.03 159.27 150.25 156.58
  C 150.81 156.34 150.63 155.50 150.02 155.50
  L 147.93 155.50
  C 147.56 155.50 147.36 155.31 147.35 154.94
  L 147.21 149.96
  C 147.20 149.62 147.46 149.35 147.80 149.34
  L 150.16 149.29
  C 150.45 149.28 150.69 149.05 150.70 148.76
  C 150.71 148.47 150.50 148.22 150.21 148.19
  L 147.76 147.93
  C 147.34 147.88 147.04 147.48 147.13 147.07
  Z
  M 70.24 156.54
  C 70.33 151.86 71.21 146.53 63.99 148.40
  C 63.66 148.48 63.50 148.69 63.50 149.03
  L 63.50 156.28
  C 63.50 156.68 63.70 156.91 64.09 156.96
  L 64.46 157.01
  C 64.82 157.06 65.00 156.90 65.00 156.54
  L 65.00 150.08
  C 65.00 149.63 65.22 149.43 65.67 149.46
  L 67.76 149.62
  C 68.33 149.67 68.63 149.98 68.64 150.55
  L 68.80 156.36
  C 68.80 156.53 68.90 156.69 69.05 156.77
  L 69.47 156.99
  C 69.82 157.18 70.24 156.93 70.24 156.54
  Z
  M 80.50 154.80
  C 79.81 154.33 80.15 153.25 80.98 153.25
  L 84.96 153.25
  C 85.24 153.25 85.40 153.11 85.44 152.83
  C 86.73 144.36 74.04 148.48 79.57 156.06
  C 79.76 156.32 80.01 156.49 80.32 156.57
  C 81.75 156.94 83.18 156.97 84.61 156.64
  C 84.90 156.58 85.06 156.26 84.94 155.99
  L 84.79 155.66
  C 84.71 155.47 84.51 155.37 84.31 155.42
  C 82.88 155.76 81.61 155.55 80.50 154.80
  Z
  M 91.92 148.04
  L 88.37 148.22
  C 87.96 148.24 87.75 148.46 87.75 148.88
  L 87.75 156.48
  C 87.75 157.10 88.51 157.39 88.93 156.93
  C 89.34 156.48 89.51 155.82 89.43 154.97
  C 89.27 153.35 89.21 151.70 89.25 150.03
  C 89.26 149.68 89.44 149.50 89.79 149.50
  L 92.08 149.50
  C 92.49 149.50 92.63 149.30 92.51 148.91
  L 92.32 148.32
  C 92.27 148.14 92.10 148.03 91.92 148.04
  Z
  M 102.90 148.90
  C 101.49 147.92 99.97 147.71 98.35 148.27
  C 97.75 148.48 97.67 148.80 98.12 149.25
  L 98.35 149.47
  C 98.54 149.66 98.77 149.72 99.02 149.63
  C 100.62 149.08 101.65 149.52 102.11 150.93
  C 102.29 151.49 101.84 152.05 101.26 152.00
  C 100.15 151.90 99.06 152.11 97.99 152.64
  C 96.28 153.48 96.45 155.98 98.26 156.57
  C 99.92 157.11 101.59 157.15 103.26 156.70
  C 103.60 156.61 103.83 156.29 103.82 155.93
  L 103.58 150.13
  C 103.55 149.64 103.30 149.18 102.90 148.90
  Z
  M 120.9127 148.5941
  C 120.91 148.29 120.66 148.05 120.3589 148.0479
  L 119.7389 148.0523
  C 119.44 148.05 119.19 148.30 119.1927 148.6061
  L 119.2473 156.4259
  C 119.25 156.73 119.50 156.97 119.8011 156.9721
  L 120.4211 156.9677
  C 120.72 156.97 120.97 156.72 120.9673 156.4139
  L 120.9127 148.5941
  Z
  M 127.67 148.03
  L 123.91 148.16
  C 123.47 148.17 123.25 148.40 123.25 148.84
  L 123.25 156.48
  C 123.25 157.00 123.82 157.31 124.26 157.04
  C 124.77 156.73 124.98 156.21 124.90 155.47
  C 124.71 153.64 124.77 151.80 125.08 149.94
  C 125.15 149.52 125.40 149.36 125.81 149.47
  C 126.69 149.70 127.44 149.56 128.05 149.06
  C 128.48 148.71 128.22 148.01 127.67 148.03
  Z
  M 131.04 154.93
  C 130.22 154.49 130.53 153.25 131.46 153.25
  L 135.24 153.25
  C 135.65 153.25 135.88 153.05 135.94 152.64
  C 136.86 146.33 128.26 146.78 128.81 152.78
  C 129.14 156.44 131.88 157.82 135.27 156.50
  C 135.53 156.40 135.68 156.11 135.60 155.84
  C 135.52 155.56 135.25 155.40 134.97 155.45
  C 133.51 155.73 132.20 155.56 131.04 154.93
  Z
  M 141.92 155.53
  C 140.89 155.63 139.95 154.98 139.68 153.98
  C 138.94 151.14 140.02 149.00 143.16 149.55
  C 143.57 149.62 143.77 149.45 143.75 149.03
  C 143.75 148.94 143.75 148.85 143.76 148.75
  C 143.79 148.41 143.55 148.11 143.22 148.07
  C 135.52 147.04 136.42 159.10 143.71 156.67
  C 144.03 156.56 144.22 156.23 144.15 155.90
  C 144.08 155.57 143.78 155.35 143.44 155.38
  L 141.92 155.53
  Z
  M 155.5240 156.9790
  C 157.69 156.93 159.41 154.89 159.3591 152.4077
  C 159.31 149.93 157.51 147.96 155.3360 148.0010
  C 153.17 148.05 151.45 150.09 151.5009 152.5723
  C 151.55 155.05 153.35 157.02 155.5240 156.9790
  Z
  M 161.53 156.26
  C 161.54 156.66 161.87 156.99 162.27 156.98
  C 162.67 156.98 163.00 156.65 163.00 156.25
  L 163.01 149.97
  C 163.01 149.79 163.14 149.64 163.32 149.62
  L 165.93 149.29
  C 166.38 149.23 166.46 148.61 166.04 148.44
  C 164.73 147.91 163.37 147.90 161.97 148.43
  C 161.69 148.53 161.51 148.80 161.51 149.09
  C 161.48 151.50 161.49 153.89 161.53 156.26
  Z
  M 170.42 154.12
  L 168.78 148.50
  C 168.68 148.16 168.45 147.99 168.09 148.00
  C 168.00 148.00 167.90 148.00 167.81 148.00
  C 167.44 147.99 167.17 148.33 167.25 148.69
  C 167.62 150.27 168.50 152.64 169.91 155.81
  C 170.48 157.10 170.14 157.99 168.89 158.48
  C 168.63 158.58 168.36 158.59 168.09 158.52
  C 167.60 158.39 167.23 158.52 167.00 158.90
  C 166.81 159.21 166.88 159.45 167.19 159.64
  C 171.20 162.04 173.51 152.11 174.12 148.49
  C 174.17 148.16 174.03 148.00 173.70 148.00
  L 173.40 148.00
  C 173.10 148.00 172.84 148.20 172.76 148.49
  L 171.25 154.11
  C 171.14 154.53 170.54 154.54 170.42 154.12
  Z
  M 186.22 156.41
  C 186.33 152.22 186.95 145.94 179.97 148.42
  C 179.67 148.53 179.52 148.74 179.52 149.05
  C 179.47 151.41 179.48 153.77 179.54 156.12
  C 179.55 156.38 179.61 156.57 179.72 156.69
  C 179.88 156.86 180.09 156.97 180.36 157.02
  C 180.69 157.09 181.00 156.84 181.00 156.50
  L 181.00 150.08
  C 181.00 149.63 181.22 149.43 181.67 149.46
  L 183.65 149.61
  C 184.11 149.64 184.38 149.89 184.45 150.34
  C 184.72 152.00 184.83 153.67 184.77 155.35
  C 184.76 155.60 184.78 155.84 184.85 156.07
  C 185.02 156.72 185.28 157.03 185.63 157.02
  C 186.02 157.00 186.21 156.80 186.22 156.41
  Z
  M 192.55 152.09
  C 190.24 151.60 188.77 152.39 188.13 154.44
  C 187.97 154.93 188.14 155.47 188.54 155.79
  C 190.21 157.11 192.10 157.42 194.22 156.72
  C 194.51 156.62 194.71 156.36 194.72 156.05
  C 194.78 152.86 195.36 145.50 189.13 148.56
  C 188.67 148.79 188.83 149.47 189.34 149.48
  L 192.13 149.51
  C 192.31 149.52 192.47 149.63 192.54 149.79
  L 193.17 151.35
  C 193.33 151.76 192.98 152.18 192.55 152.09
  Z
  M 203.43 150.78
  C 203.41 149.91 204.08 149.19 204.95 149.14
  C 205.81 149.09 206.56 149.73 206.65 150.59
  C 206.80 152.08 206.86 153.82 206.62 155.40
  C 206.50 156.20 206.87 156.75 207.73 157.06
  C 208.09 157.18 208.45 156.91 208.44 156.53
  L 208.13 149.80
  C 208.12 149.53 207.99 149.28 207.79 149.09
  C 206.33 147.80 204.80 147.66 203.20 148.68
  C 202.92 148.86 202.56 148.87 202.27 148.71
  C 200.76 147.90 199.16 147.73 197.47 148.22
  C 197.19 148.30 196.99 148.55 196.99 148.85
  L 197.02 156.59
  C 197.03 156.83 197.22 157.02 197.46 157.01
  C 197.57 157.00 197.67 157.00 197.76 157.00
  C 198.25 157.02 198.50 156.78 198.50 156.28
  L 198.50 150.26
  C 198.50 149.97 198.64 149.76 198.91 149.64
  C 202.69 148.03 202.06 154.54 202.03 156.36
  C 202.02 156.77 202.22 156.99 202.63 157.01
  C 202.76 157.02 202.89 157.01 203.01 156.99
  C 203.36 156.92 203.54 156.70 203.53 156.34
  L 203.43 150.78
  Z
  M 212.70 153.25
  L 216.96 153.25
  C 217.25 153.25 217.41 153.11 217.45 152.83
  C 217.86 150.16 216.05 147.22 212.99 148.26
  C 208.46 149.79 209.63 158.75 216.41 156.72
  C 216.62 156.65 216.76 156.56 216.85 156.43
  C 217.00 156.21 217.01 155.97 216.87 155.72
  C 216.73 155.48 216.45 155.36 216.19 155.43
  C 214.57 155.85 213.24 155.50 212.20 154.38
  C 211.80 153.95 212.11 153.25 212.70 153.25
  Z"
/>
<path fill="#93a3b8" d="
  M 115.15 147.70
  L 115.30 144.36
  C 115.31 144.16 115.47 144.01 115.67 144.00
  C 115.79 144.00 115.90 144.00 116.01 144.00
  C 116.47 144.01 116.70 144.25 116.71 144.71
  L 116.76 155.75
  C 116.77 156.15 116.58 156.42 116.21 156.56
  C 107.60 159.85 107.06 146.45 114.42 148.24
  C 114.89 148.35 115.13 148.17 115.15 147.70
  Z
  M 115.05 154.61
  L 114.95 150.27
  C 114.94 149.82 114.56 149.45 114.10 149.46
  L 113.42 149.48
  C 112.04 149.51 110.94 150.65 110.97 152.02
  L 110.99 153.06
  C 111.02 154.42 112.17 155.51 113.56 155.48
  L 114.24 155.46
  C 114.70 155.45 115.06 155.07 115.05 154.61
  Z"
/>
<circle fill="#93a3b8" cx="120.02" cy="145.01" r="1.00"/>
<path fill="#93a3b8" d="
  M 55.74 147.01
  L 55.77 149.38
  C 55.78 149.77 56.10 150.07 56.49 150.04
  C 57.75 149.94 58.99 149.95 60.22 150.06
  C 60.54 150.09 60.78 150.36 60.76 150.68
  C 60.75 151.00 60.49 151.25 60.17 151.25
  L 56.62 151.25
  C 56.21 151.25 56.00 151.46 56.00 151.88
  L 56.00 154.97
  C 56.00 155.33 56.18 155.51 56.53 155.51
  L 61.19 155.51
  C 61.59 155.51 61.89 155.83 61.86 156.24
  C 61.83 156.64 61.47 156.97 61.07 156.97
  L 55.03 157.02
  C 54.72 157.02 54.47 156.77 54.47 156.46
  L 54.47 145.51
  C 54.47 145.16 54.64 144.99 54.98 145.00
  L 60.63 145.01
  C 61.03 145.01 61.31 145.39 61.20 145.77
  C 61.03 146.37 60.55 146.61 59.76 146.50
  C 58.63 146.34 57.49 146.29 56.35 146.36
  C 55.94 146.39 55.73 146.60 55.74 147.01
  Z"
/>
<path fill="#93a3b8" d="
  M 74.62 148.00
  L 76.45 148.00
  C 76.94 148.00 77.12 148.24 77.00 148.71
  L 76.93 148.97
  C 76.86 149.22 76.70 149.33 76.45 149.32
  L 74.77 149.24
  C 74.25 149.21 73.99 149.46 73.99 149.98
  L 74.01 154.81
  C 74.01 155.18 74.31 155.47 74.68 155.48
  L 76.70 155.51
  C 76.96 155.52 77.18 155.70 77.24 155.95
  C 77.31 156.27 77.21 156.49 76.93 156.60
  C 70.78 159.18 72.48 148.56 72.53 145.72
  C 72.54 145.41 72.78 145.15 73.09 145.12
  C 73.40 145.10 73.68 145.31 73.74 145.62
  L 74.12 147.59
  C 74.17 147.86 74.34 148.00 74.62 148.00
  Z"
/>
<path fill="#93a3b8" d="
  M 147.76 147.93
  L 150.21 148.19
  C 150.50 148.22 150.71 148.47 150.70 148.76
  C 150.69 149.05 150.45 149.28 150.16 149.29
  L 147.80 149.34
  C 147.46 149.35 147.20 149.62 147.21 149.96
  L 147.35 154.94
  C 147.36 155.31 147.56 155.50 147.93 155.50
  L 150.02 155.50
  C 150.63 155.50 150.81 156.34 150.25 156.58
  C 144.03 159.27 145.80 148.82 145.64 145.92
  C 145.62 145.69 145.81 145.50 146.04 145.50
  L 146.71 145.50
  C 147.20 145.50 147.39 145.74 147.30 146.22
  L 147.13 147.07
  C 147.04 147.48 147.34 147.88 147.76 147.93
  Z"
/>
<path fill="#93a3b8" d="
  M 63.99 148.40
  C 71.21 146.53 70.33 151.86 70.24 156.54
  C 70.24 156.93 69.82 157.18 69.47 156.99
  L 69.05 156.77
  C 68.90 156.69 68.80 156.53 68.80 156.36
  L 68.64 150.55
  C 68.63 149.98 68.33 149.67 67.76 149.62
  L 65.67 149.46
  C 65.22 149.43 65.00 149.63 65.00 150.08
  L 65.00 156.54
  C 65.00 156.90 64.82 157.06 64.46 157.01
  L 64.09 156.96
  C 63.70 156.91 63.50 156.68 63.50 156.28
  L 63.50 149.03
  C 63.50 148.69 63.66 148.48 63.99 148.40
  Z"
/>
<path fill="#93a3b8" d="
  M 80.50 154.80
  C 81.61 155.55 82.88 155.76 84.31 155.42
  C 84.51 155.37 84.71 155.47 84.79 155.66
  L 84.94 155.99
  C 85.06 156.26 84.90 156.58 84.61 156.64
  C 83.18 156.97 81.75 156.94 80.32 156.57
  C 80.01 156.49 79.76 156.32 79.57 156.06
  C 74.04 148.48 86.73 144.36 85.44 152.83
  C 85.40 153.11 85.24 153.25 84.96 153.25
  L 80.98 153.25
  C 80.15 153.25 79.81 154.33 80.50 154.80
  Z
  M 80.47 151.99
  L 83.55 151.99
  C 83.80 151.99 83.99 151.79 83.99 151.55
  L 83.99 151.42
  C 83.99 150.36 83.15 149.51 82.11 149.51
  L 81.91 149.51
  C 80.87 149.51 80.03 150.37 80.03 151.42
  L 80.03 151.55
  C 80.03 151.80 80.23 151.99 80.47 151.99
  Z"
/>
<path fill="#93a3b8" d="
  M 91.92 148.04
  C 92.10 148.03 92.27 148.14 92.32 148.32
  L 92.51 148.91
  C 92.63 149.30 92.49 149.50 92.08 149.50
  L 89.79 149.50
  C 89.44 149.50 89.26 149.68 89.25 150.03
  C 89.21 151.70 89.27 153.35 89.43 154.97
  C 89.51 155.82 89.34 156.48 88.93 156.93
  C 88.51 157.39 87.75 157.10 87.75 156.48
  L 87.75 148.88
  C 87.75 148.46 87.96 148.24 88.37 148.22
  L 91.92 148.04
  Z"
/>
<path fill="#93a3b8" d="
  M 102.90 148.90
  C 103.30 149.18 103.55 149.64 103.58 150.13
  L 103.82 155.93
  C 103.83 156.29 103.60 156.61 103.26 156.70
  C 101.59 157.15 99.92 157.11 98.26 156.57
  C 96.45 155.98 96.28 153.48 97.99 152.64
  C 99.06 152.11 100.15 151.90 101.26 152.00
  C 101.84 152.05 102.29 151.49 102.11 150.93
  C 101.65 149.52 100.62 149.08 99.02 149.63
  C 98.77 149.72 98.54 149.66 98.35 149.47
  L 98.12 149.25
  C 97.67 148.80 97.75 148.48 98.35 148.27
  C 99.97 147.71 101.49 147.92 102.90 148.90
  Z
  M 102.22 155.31
  L 102.26 153.75
  C 102.27 153.50 102.07 153.29 101.82 153.28
  L 101.25 153.26
  C 99.89 153.22 98.78 153.69 98.76 154.32
  L 98.76 154.54
  C 98.74 155.16 99.82 155.70 101.17 155.74
  L 101.74 155.76
  C 102.00 155.76 102.21 155.57 102.22 155.31
  Z"
/>
<rect fill="#93a3b8" x="-0.86" y="-4.46" transform="translate(120.08,152.51) rotate(-0.4)" width="1.72" height="8.92" rx="0.55"/>
<path fill="#93a3b8" d="
  M 127.67 148.03
  C 128.22 148.01 128.48 148.71 128.05 149.06
  C 127.44 149.56 126.69 149.70 125.81 149.47
  C 125.40 149.36 125.15 149.52 125.08 149.94
  C 124.77 151.80 124.71 153.64 124.90 155.47
  C 124.98 156.21 124.77 156.73 124.26 157.04
  C 123.82 157.31 123.25 157.00 123.25 156.48
  L 123.25 148.84
  C 123.25 148.40 123.47 148.17 123.91 148.16
  L 127.67 148.03
  Z"
/>
<path fill="#93a3b8" d="
  M 131.04 154.93
  C 132.20 155.56 133.51 155.73 134.97 155.45
  C 135.25 155.40 135.52 155.56 135.60 155.84
  C 135.68 156.11 135.53 156.40 135.27 156.50
  C 131.88 157.82 129.14 156.44 128.81 152.78
  C 128.26 146.78 136.86 146.33 135.94 152.64
  C 135.88 153.05 135.65 153.25 135.24 153.25
  L 131.46 153.25
  C 130.53 153.25 130.22 154.49 131.04 154.93
  Z
  M 130.95 151.98
  L 134.07 151.98
  C 134.31 151.98 134.50 151.79 134.50 151.55
  L 134.50 151.43
  C 134.50 150.38 133.66 149.52 132.62 149.52
  L 132.40 149.52
  C 131.36 149.52 130.52 150.37 130.52 151.43
  L 130.52 151.55
  C 130.52 151.78 130.71 151.98 130.95 151.98
  Z"
/>
<path fill="#93a3b8" d="
  M 141.92 155.53
  L 143.44 155.38
  C 143.78 155.35 144.08 155.57 144.15 155.90
  C 144.22 156.23 144.03 156.56 143.71 156.67
  C 136.42 159.10 135.52 147.04 143.22 148.07
  C 143.55 148.11 143.79 148.41 143.76 148.75
  C 143.75 148.85 143.75 148.94 143.75 149.03
  C 143.77 149.45 143.57 149.62 143.16 149.55
  C 140.02 149.00 138.94 151.14 139.68 153.98
  C 139.95 154.98 140.89 155.63 141.92 155.53
  Z"
/>
<path fill="#93a3b8" d="
  M 155.5240 156.9790
  C 153.35 157.02 151.55 155.05 151.5009 152.5723
  C 151.45 150.09 153.17 148.05 155.3360 148.0010
  C 157.51 147.96 159.31 149.93 159.3591 152.4077
  C 159.41 154.89 157.69 156.93 155.5240 156.9790
  Z
  M 155.4900 155.5700
  C 156.76 155.57 157.79 154.20 157.7900 152.5000
  C 157.79 150.80 156.76 149.43 155.4900 149.4300
  C 154.22 149.43 153.19 150.80 153.1900 152.5000
  C 153.19 154.20 154.22 155.57 155.4900 155.5700
  Z"
/>
<path fill="#93a3b8" d="
  M 161.53 156.26
  C 161.49 153.89 161.48 151.50 161.51 149.09
  C 161.51 148.80 161.69 148.53 161.97 148.43
  C 163.37 147.90 164.73 147.91 166.04 148.44
  C 166.46 148.61 166.38 149.23 165.93 149.29
  L 163.32 149.62
  C 163.14 149.64 163.01 149.79 163.01 149.97
  L 163.00 156.25
  C 163.00 156.65 162.67 156.98 162.27 156.98
  C 161.87 156.99 161.54 156.66 161.53 156.26
  Z"
/>
<path fill="#93a3b8" d="
  M 171.25 154.11
  L 172.76 148.49
  C 172.84 148.20 173.10 148.00 173.40 148.00
  L 173.70 148.00
  C 174.03 148.00 174.17 148.16 174.12 148.49
  C 173.51 152.11 171.20 162.04 167.19 159.64
  C 166.88 159.45 166.81 159.21 167.00 158.90
  C 167.23 158.52 167.60 158.39 168.09 158.52
  C 168.36 158.59 168.63 158.58 168.89 158.48
  C 170.14 157.99 170.48 157.10 169.91 155.81
  C 168.50 152.64 167.62 150.27 167.25 148.69
  C 167.17 148.33 167.44 147.99 167.81 148.00
  C 167.90 148.00 168.00 148.00 168.09 148.00
  C 168.45 147.99 168.68 148.16 168.78 148.50
  L 170.42 154.12
  C 170.54 154.54 171.14 154.53 171.25 154.11
  Z"
/>
<path fill="#93a3b8" d="
  M 179.97 148.42
  C 186.95 145.94 186.33 152.22 186.22 156.41
  C 186.21 156.80 186.02 157.00 185.63 157.02
  C 185.28 157.03 185.02 156.72 184.85 156.07
  C 184.78 155.84 184.76 155.60 184.77 155.35
  C 184.83 153.67 184.72 152.00 184.45 150.34
  C 184.38 149.89 184.11 149.64 183.65 149.61
  L 181.67 149.46
  C 181.22 149.43 181.00 149.63 181.00 150.08
  L 181.00 156.50
  C 181.00 156.84 180.69 157.09 180.36 157.02
  C 180.09 156.97 179.88 156.86 179.72 156.69
  C 179.61 156.57 179.55 156.38 179.54 156.12
  C 179.48 153.77 179.47 151.41 179.52 149.05
  C 179.52 148.74 179.67 148.53 179.97 148.42
  Z"
/>
<path fill="#93a3b8" d="
  M 193.17 151.35
  L 192.54 149.79
  C 192.47 149.63 192.31 149.52 192.13 149.51
  L 189.34 149.48
  C 188.83 149.47 188.67 148.79 189.13 148.56
  C 195.36 145.50 194.78 152.86 194.72 156.05
  C 194.71 156.36 194.51 156.62 194.22 156.72
  C 192.10 157.42 190.21 157.11 188.54 155.79
  C 188.14 155.47 187.97 154.93 188.13 154.44
  C 188.77 152.39 190.24 151.60 192.55 152.09
  C 192.98 152.18 193.33 151.76 193.17 151.35
  Z
  M 193.23 155.29
  L 193.25 153.71
  C 193.25 153.46 193.04 153.25 192.79 153.25
  L 192.22 153.24
  C 190.87 153.24 189.77 153.73 189.76 154.36
  L 189.76 154.60
  C 189.75 155.22 190.85 155.74 192.20 155.74
  L 192.77 155.75
  C 193.03 155.75 193.23 155.55 193.23 155.29
  Z"
/>
<path fill="#93a3b8" d="
  M 203.43 150.78
  L 203.53 156.34
  C 203.54 156.70 203.36 156.92 203.01 156.99
  C 202.89 157.01 202.76 157.02 202.63 157.01
  C 202.22 156.99 202.02 156.77 202.03 156.36
  C 202.06 154.54 202.69 148.03 198.91 149.64
  C 198.64 149.76 198.50 149.97 198.50 150.26
  L 198.50 156.28
  C 198.50 156.78 198.25 157.02 197.76 157.00
  C 197.67 157.00 197.57 157.00 197.46 157.01
  C 197.22 157.02 197.03 156.83 197.02 156.59
  L 196.99 148.85
  C 196.99 148.55 197.19 148.30 197.47 148.22
  C 199.16 147.73 200.76 147.90 202.27 148.71
  C 202.56 148.87 202.92 148.86 203.20 148.68
  C 204.80 147.66 206.33 147.80 207.79 149.09
  C 207.99 149.28 208.12 149.53 208.13 149.80
  L 208.44 156.53
  C 208.45 156.91 208.09 157.18 207.73 157.06
  C 206.87 156.75 206.50 156.20 206.62 155.40
  C 206.86 153.82 206.80 152.08 206.65 150.59
  C 206.56 149.73 205.81 149.09 204.95 149.14
  C 204.08 149.19 203.41 149.91 203.43 150.78
  Z"
/>
<path fill="#93a3b8" d="
  M 212.70 153.25
  C 212.11 153.25 211.80 153.95 212.20 154.38
  C 213.24 155.50 214.57 155.85 216.19 155.43
  C 216.45 155.36 216.73 155.48 216.87 155.72
  C 217.01 155.97 217.00 156.21 216.85 156.43
  C 216.76 156.56 216.62 156.65 216.41 156.72
  C 209.63 158.75 208.46 149.79 212.99 148.26
  C 216.05 147.22 217.86 150.16 217.45 152.83
  C 217.41 153.11 217.25 153.25 216.96 153.25
  L 212.70 153.25
  Z
  M 212.50 152.01
  L 215.56 151.99
  C 215.80 151.99 216.00 151.79 216.00 151.55
  L 215.99 151.40
  C 215.99 150.34 215.14 149.49 214.10 149.50
  L 213.92 149.50
  C 212.88 149.51 212.05 150.37 212.05 151.42
  L 212.06 151.57
  C 212.06 151.82 212.26 152.01 212.50 152.01
  Z"
/>
<path fill="#f0f5f9" d="
  M 80.47 151.99
  C 80.23 151.99 80.03 151.80 80.03 151.55
  L 80.03 151.42
  C 80.03 150.37 80.87 149.51 81.91 149.51
  L 82.11 149.51
  C 83.15 149.51 83.99 150.36 83.99 151.42
  L 83.99 151.55
  C 83.99 151.79 83.80 151.99 83.55 151.99
  L 80.47 151.99
  Z"
/>
<path fill="#f0f5f9" d="
  M 115.05 154.61
  C 115.06 155.07 114.70 155.45 114.24 155.46
  L 113.56 155.48
  C 112.17 155.51 111.02 154.42 110.99 153.06
  L 110.97 152.02
  C 110.94 150.65 112.04 149.51 113.42 149.48
  L 114.10 149.46
  C 114.56 149.45 114.94 149.82 114.95 150.27
  L 115.05 154.61
  Z"
/>
<path fill="#f0f5f9" d="
  M 130.95 151.98
  C 130.71 151.98 130.52 151.78 130.52 151.55
  L 130.52 151.43
  C 130.52 150.37 131.36 149.52 132.40 149.52
  L 132.62 149.52
  C 133.66 149.52 134.50 150.38 134.50 151.43
  L 134.50 151.55
  C 134.50 151.79 134.31 151.98 134.07 151.98
  L 130.95 151.98
  Z"
/>
<ellipse fill="#f0f5f9" cx="0.00" cy="0.00" transform="translate(155.49,152.50) rotate(90.0)" rx="3.07" ry="2.30"/>
<path fill="#f0f5f9" d="
  M 212.50 152.01
  C 212.26 152.01 212.06 151.82 212.06 151.57
  L 212.05 151.42
  C 212.05 150.37 212.88 149.51 213.92 149.50
  L 214.10 149.50
  C 215.14 149.49 215.99 150.34 215.99 151.40
  L 216.00 151.55
  C 216.00 151.79 215.80 151.99 215.56 151.99
  L 212.50 152.01
  Z"
/>
<path fill="#f0f5f9" d="
  M 102.22 155.31
  C 102.21 155.57 102.00 155.76 101.74 155.76
  L 101.17 155.74
  C 99.82 155.70 98.74 155.16 98.76 154.54
  L 98.76 154.32
  C 98.78 153.69 99.89 153.22 101.25 153.26
  L 101.82 153.28
  C 102.07 153.29 102.27 153.50 102.26 153.75
  L 102.22 155.31
  Z"
/>
<path fill="#f0f5f9" d="
  M 193.23 155.29
  C 193.23 155.55 193.03 155.75 192.77 155.75
  L 192.20 155.74
  C 190.85 155.74 189.75 155.22 189.76 154.60
  L 189.76 154.36
  C 189.77 153.73 190.87 153.24 192.22 153.24
  L 192.79 153.25
  C 193.04 153.25 193.25 153.46 193.25 153.71
  L 193.23 155.29
  Z"
/>
<path fill="#9d00ee" d="
  M 135.99 240.90
  C 135.99 245.37 132.36 249.00 127.89 249.00
  L 47.11 249.00
  C 42.64 249.00 39.01 245.37 39.01 240.90
  L 39.01 209.10
  C 39.01 204.63 42.64 201.00 47.11 201.00
  L 127.89 201.00
  C 132.36 201.00 135.99 204.63 135.99 209.10
  L 135.99 240.90
  Z
  M 71.69 229.11
  C 62.70 232.06 64.51 217.56 71.23 220.96
  C 71.66 221.17 72.15 220.81 72.07 220.34
  C 71.98 219.79 71.70 219.47 71.23 219.37
  C 62.85 217.54 61.05 229.44 68.94 231.05
  C 70.60 231.39 71.70 230.94 72.24 229.71
  C 72.39 229.36 72.06 228.99 71.69 229.11
  Z
  M 99.27 228.81
  L 98.90 224.09
  C 98.85 223.53 99.11 223.25 99.67 223.25
  L 101.73 223.25
  C 101.92 223.25 102.09 223.13 102.14 222.95
  L 102.26 222.59
  C 102.34 222.34 102.16 222.08 101.89 222.07
  L 99.53 221.97
  C 99.28 221.96 99.08 221.77 99.06 221.52
  L 98.86 219.35
  C 98.84 219.16 98.69 219.02 98.50 219.01
  C 98.32 219.00 98.15 219.13 98.12 219.31
  C 97.57 222.30 97.44 225.31 97.73 228.34
  C 97.97 230.77 100.91 231.97 102.58 230.26
  C 102.86 229.98 102.66 229.50 102.26 229.50
  L 100.02 229.50
  C 99.63 229.50 99.30 229.20 99.27 228.81
  Z
  M 76.69 223.53
  L 78.39 223.43
  C 78.76 223.41 79.05 223.10 79.05 222.73
  C 79.05 222.36 78.75 222.05 78.38 222.04
  C 77.33 222.00 76.27 222.08 75.20 222.29
  C 74.67 222.39 74.29 222.85 74.28 223.39
  L 74.19 230.41
  C 74.18 230.77 74.36 230.96 74.72 230.97
  L 75.33 231.00
  C 75.67 231.02 75.95 230.74 75.94 230.41
  L 75.70 224.62
  C 75.67 224.05 76.11 223.56 76.69 223.53
  Z
  M 82.64 229.35
  C 82.01 229.31 81.52 228.77 81.55 228.14
  C 81.57 227.50 82.09 227.00 82.72 227.00
  L 86.28 227.00
  C 86.59 227.00 86.77 226.85 86.84 226.56
  C 88.52 219.79 77.41 221.31 80.15 228.32
  C 81.08 230.73 83.60 231.60 85.93 230.70
  C 86.52 230.48 86.39 229.61 85.77 229.57
  L 82.64 229.35
  Z
  M 93.02 226.01
  C 86.89 225.31 87.92 232.58 94.43 230.81
  C 94.76 230.72 94.94 230.51 94.96 230.16
  C 95.12 227.32 95.87 219.61 89.95 222.47
  C 89.61 222.63 89.59 223.11 89.91 223.31
  C 90.32 223.57 90.73 223.61 91.14 223.42
  C 91.55 223.23 91.96 223.23 92.37 223.43
  C 93.22 223.85 93.66 224.51 93.68 225.42
  C 93.69 225.77 93.37 226.05 93.02 226.01
  Z
  M 106.05 229.04
  C 105.08 228.48 105.48 227.00 106.60 227.00
  L 110.07 227.00
  C 110.44 227.00 110.65 226.82 110.70 226.45
  C 111.26 222.46 106.47 220.13 104.18 224.12
  C 102.15 227.67 105.12 232.25 109.59 230.67
  C 109.86 230.58 110.00 230.39 110.01 230.11
  C 110.02 229.96 110.00 229.81 109.97 229.67
  C 109.87 229.28 109.63 229.15 109.25 229.29
  C 108.10 229.70 107.04 229.61 106.05 229.04
  Z"
/>
<path fill="#f0f5f9" d="
  M 71.23 220.96
  C 64.51 217.56 62.70 232.06 71.69 229.11
  C 72.06 228.99 72.39 229.36 72.24 229.71
  C 71.70 230.94 70.60 231.39 68.94 231.05
  C 61.05 229.44 62.85 217.54 71.23 219.37
  C 71.70 219.47 71.98 219.79 72.07 220.34
  C 72.15 220.81 71.66 221.17 71.23 220.96
  Z"
/>
<path fill="#f0f5f9" d="
  M 100.02 229.50
  L 102.26 229.50
  C 102.66 229.50 102.86 229.98 102.58 230.26
  C 100.91 231.97 97.97 230.77 97.73 228.34
  C 97.44 225.31 97.57 222.30 98.12 219.31
  C 98.15 219.13 98.32 219.00 98.50 219.01
  C 98.69 219.02 98.84 219.16 98.86 219.35
  L 99.06 221.52
  C 99.08 221.77 99.28 221.96 99.53 221.97
  L 101.89 222.07
  C 102.16 222.08 102.34 222.34 102.26 222.59
  L 102.14 222.95
  C 102.09 223.13 101.92 223.25 101.73 223.25
  L 99.67 223.25
  C 99.11 223.25 98.85 223.53 98.90 224.09
  L 99.27 228.81
  C 99.30 229.20 99.63 229.50 100.02 229.50
  Z"
/>
<path fill="#f0f5f9" d="
  M 76.69 223.53
  C 76.11 223.56 75.67 224.05 75.70 224.62
  L 75.94 230.41
  C 75.95 230.74 75.67 231.02 75.33 231.00
  L 74.72 230.97
  C 74.36 230.96 74.18 230.77 74.19 230.41
  L 74.28 223.39
  C 74.29 222.85 74.67 222.39 75.20 222.29
  C 76.27 222.08 77.33 222.00 78.38 222.04
  C 78.75 222.05 79.05 222.36 79.05 222.73
  C 79.05 223.10 78.76 223.41 78.39 223.43
  L 76.69 223.53
  Z"
/>
<path fill="#f0f5f9" d="
  M 82.64 229.35
  L 85.77 229.57
  C 86.39 229.61 86.52 230.48 85.93 230.70
  C 83.60 231.60 81.08 230.73 80.15 228.32
  C 77.41 221.31 88.52 219.79 86.84 226.56
  C 86.77 226.85 86.59 227.00 86.28 227.00
  L 82.72 227.00
  C 82.09 227.00 81.57 227.50 81.55 228.14
  C 81.52 228.77 82.01 229.31 82.64 229.35
  Z
  M 81.95 225.99
  L 85.05 225.99
  C 85.29 225.99 85.49 225.79 85.49 225.55
  L 85.49 225.42
  C 85.49 224.37 84.65 223.51 83.61 223.51
  L 83.39 223.51
  C 82.35 223.51 81.51 224.37 81.51 225.42
  L 81.51 225.55
  C 81.51 225.79 81.71 225.99 81.95 225.99
  Z"
/>
<path fill="#f0f5f9" d="
  M 93.68 225.42
  C 93.66 224.51 93.22 223.85 92.37 223.43
  C 91.96 223.23 91.55 223.23 91.14 223.42
  C 90.73 223.61 90.32 223.57 89.91 223.31
  C 89.59 223.11 89.61 222.63 89.95 222.47
  C 95.87 219.61 95.12 227.32 94.96 230.16
  C 94.94 230.51 94.76 230.72 94.43 230.81
  C 87.92 232.58 86.89 225.31 93.02 226.01
  C 93.37 226.05 93.69 225.77 93.68 225.42
  Z
  M 92.79 227.09
  C 91.72 227.04 90.87 227.40 90.25 228.19
  C 90.04 228.45 90.10 228.84 90.38 229.03
  C 91.10 229.52 91.89 229.76 92.74 229.75
  C 93.46 229.74 94.04 229.16 94.06 228.44
  C 94.07 227.72 93.51 227.12 92.79 227.09
  Z"
/>
<path fill="#f0f5f9" d="
  M 106.05 229.04
  C 107.04 229.61 108.10 229.70 109.25 229.29
  C 109.63 229.15 109.87 229.28 109.97 229.67
  C 110.00 229.81 110.02 229.96 110.01 230.11
  C 110.00 230.39 109.86 230.58 109.59 230.67
  C 105.12 232.25 102.15 227.67 104.18 224.12
  C 106.47 220.13 111.26 222.46 110.70 226.45
  C 110.65 226.82 110.44 227.00 110.07 227.00
  L 106.60 227.00
  C 105.48 227.00 105.08 228.48 106.05 229.04
  Z
  M 105.72 226.01
  L 108.78 226.01
  C 109.03 226.01 109.23 225.81 109.23 225.56
  L 109.23 225.41
  C 109.23 224.35 108.41 223.49 107.39 223.49
  L 107.11 223.49
  C 106.10 223.49 105.27 224.35 105.27 225.41
  L 105.27 225.56
  C 105.27 225.81 105.47 226.01 105.72 226.01
  Z"
/>
<path fill="#9d00ee" d="
  M 81.95 225.99
  C 81.71 225.99 81.51 225.79 81.51 225.55
  L 81.51 225.42
  C 81.51 224.37 82.35 223.51 83.39 223.51
  L 83.61 223.51
  C 84.65 223.51 85.49 224.37 85.49 225.42
  L 85.49 225.55
  C 85.49 225.79 85.29 225.99 85.05 225.99
  L 81.95 225.99
  Z"
/>
<path fill="#9d00ee" d="
  M 105.72 226.01
  C 105.47 226.01 105.27 225.81 105.27 225.56
  L 105.27 225.41
  C 105.27 224.35 106.10 223.49 107.11 223.49
  L 107.39 223.49
  C 108.41 223.49 109.23 224.35 109.23 225.41
  L 109.23 225.56
  C 109.23 225.81 109.03 226.01 108.78 226.01
  L 105.72 226.01
  Z"
/>
<path fill="#9d00ee" d="
  M 92.79 227.09
  C 93.51 227.12 94.07 227.72 94.06 228.44
  C 94.04 229.16 93.46 229.74 92.74 229.75
  C 91.89 229.76 91.10 229.52 90.38 229.03
  C 90.10 228.84 90.04 228.45 90.25 228.19
  C 90.87 227.40 91.72 227.04 92.79 227.09
  Z"
/>
</svg>
