<svg width="36" height="34" viewBox="0 0 36 34" fill="none" xmlns="http://www.w3.org/2000/svg">
<path id="Vector" d="M30.52 33.3601C20.37 33.6401 13.63 33.6701 10.31 33.4401C7.19002 33.2201 4.75002 31.4801 3.00002 28.2101C1.45002 17.1001 0.720023 9.97011 0.830023 6.81011C0.990023 2.07011 5.03002 0.810119 9.33002 0.770119C14.4 0.730119 26.01 -0.449888 30.07 2.20011C32.32 3.67011 33.6 6.00011 33.89 9.17011C34.35 14.1201 34.82 19.0601 35.29 23.9901C35.73 28.6801 35.2 31.8301 30.52 33.3601ZM17.28 16.1801L16.82 10.1101C16.76 9.25012 16.01 8.61011 15.15 8.67011L10.94 8.99012C9.94002 9.07012 9.19002 9.99011 9.27002 11.0401L9.67002 16.3901C9.75002 17.4401 10.63 18.2401 11.63 18.1701L15.84 17.8501C16.7 17.7801 17.34 17.0401 17.28 16.1801ZM26 13.4001L26.02 10.1201C26.02 9.49011 25.51 8.98011 24.88 8.98011L19.71 8.96012C18.91 8.96012 18.26 9.83012 18.25 10.9101V12.5701C18.24 13.6401 18.89 14.5201 19.69 14.5201L24.86 14.5401C25.49 14.5401 26 14.0301 26 13.4001ZM19.71 24.1901C19.76 24.6301 20.12 24.9701 20.56 24.9701L26.18 25.0601C26.7 25.0701 27.11 24.6201 27.06 24.1101L26.33 17.0201C26.28 16.5801 25.91 16.2401 25.46 16.2401L19.86 16.2601C19.35 16.2601 18.95 16.7001 19 17.2201L19.71 24.1901ZM17.99 23.8301L18.03 20.7701C18.04 20.0801 17.49 19.5201 16.8 19.5101L11.91 19.4501C11.01 19.4401 10.27 20.6001 10.25 22.0401V22.3601C10.23 23.8001 10.95 24.9801 11.85 24.9901L16.74 25.0501C17.42 25.0601 17.98 24.5101 17.99 23.8301Z" fill="#A100F9"/>
</svg>
