<svg width="19" height="15" viewBox="0 0 19 15" fill="none" xmlns="http://www.w3.org/2000/svg">
    <path d="M17.7365 0.222014L1.7166 0.277934C1.19193 0.279765 0.768086 0.706577 0.769918 1.23124L0.770127 1.29124C0.771959 1.81591 1.19877 2.23975 1.72344 2.23792L17.7433 2.182C18.268 2.18017 18.6918 1.75336 18.69 1.22869L18.6898 1.16869C18.688 0.644024 18.2612 0.220182 17.7365 0.222014Z" fill="#E7C2FF"/>
    <path d="M17.87 6.25H1.60999C1.14054 6.25 0.76001 6.63056 0.76001 7.1V7.14C0.76001 7.60944 1.14054 7.99 1.60999 7.99H17.87C18.3394 7.99 18.72 7.60944 18.72 7.14V7.1C18.72 6.63056 18.3394 6.25 17.87 6.25Z" fill="#A7F1FF"/>
    <path d="M17.77 12.01H1.70999C1.17428 12.01 0.73999 12.4443 0.73999 12.98V13.04C0.73999 13.5757 1.17428 14.01 1.70999 14.01H17.77C18.3057 14.01 18.74 13.5757 18.74 13.04V12.98C18.74 12.4443 18.3057 12.01 17.77 12.01Z" fill="#FF939F"/>
</svg>
