<svg width="22" height="23" viewBox="0 0 22 23" fill="none" xmlns="http://www.w3.org/2000/svg">
  <path d="M5.48996 8.81C7.71567 8.81 9.51996 7.00571 9.51996 4.78C9.51996 2.55429 7.71567 0.75 5.48996 0.75C3.26425 0.75 1.45996 2.55429 1.45996 4.78C1.45996 7.00571 3.26425 8.81 5.48996 8.81Z" fill="#FEC061"/>
  <path d="M16.36 8.16993C18.2212 8.16993 19.73 6.66113 19.73 4.79993C19.73 2.93873 18.2212 1.42993 16.36 1.42993C14.4988 1.42993 12.99 2.93873 12.99 4.79993C12.99 6.66113 14.4988 8.16993 16.36 8.16993Z" fill="#E7C2FF"/>
  <path d="M17.4 20.05C19.819 20.05 21.78 18.089 21.78 15.67C21.78 13.251 19.819 11.29 17.4 11.29C14.981 11.29 13.02 13.251 13.02 15.67C13.02 18.089 14.981 20.05 17.4 20.05Z" fill="#FF939F"/>
  <path d="M5.1601 22.18C7.96018 22.18 10.2301 19.9101 10.2301 17.11C10.2301 14.31 7.96018 12.04 5.1601 12.04C2.36001 12.04 0.0900879 14.31 0.0900879 17.11C0.0900879 19.9101 2.36001 22.18 5.1601 22.18Z" fill="#A7F1FF"/>
</svg>